<svg id="Capa_1" data-name="Capa 1" xmlns="http://www.w3.org/2000/svg" xmlns:xlink="http://www.w3.org/1999/xlink" viewBox="0 0 375 394.1"><defs><style>.cls-1{fill:none;}.cls-2{clip-path:url(#clip-path);}.cls-10,.cls-3,.cls-9{fill:#fff;}.cls-4{clip-path:url(#clip-path-2);}.cls-5{clip-path:url(#clip-path-4);}.cls-6{fill:#004aad;}.cls-7{clip-path:url(#clip-path-5);}.cls-8{clip-path:url(#clip-path-6);}.cls-9{font-size:76.78px;font-family:Cinzel-Bold, Cinzel;font-weight:700;}.cls-10{font-size:36.89px;}.cls-10,.cls-11{font-family:Cinzel-Regular, Cinzel;}.cls-11{font-size:15.53px;fill:#d9d9d9;}</style><clipPath id="clip-path" transform="translate(0 19.64)"><rect class="cls-1" y="-8.04" width="375" height="382.5"/></clipPath><clipPath id="clip-path-2" transform="translate(0 19.64)"><rect class="cls-1" y="-8.04" width="375" height="375"/></clipPath><clipPath id="clip-path-4" transform="translate(0 19.64)"><rect class="cls-1" x="134.67" y="72.32" width="105" height="131.25"/></clipPath><clipPath id="clip-path-5" transform="translate(0 19.64)"><rect class="cls-1" x="110.72" y="-8.04" width="115.5" height="103.9"/></clipPath><clipPath id="clip-path-6" transform="translate(0 19.64)"><rect class="cls-1" x="146.24" y="174.95" width="115.5" height="115.5"/></clipPath></defs><g class="cls-2"><rect class="cls-3" y="11.6" width="375" height="382.5"/></g><g class="cls-4"><rect class="cls-3" y="11.6" width="375" height="375"/></g><g class="cls-4"><rect y="11.6" width="375" height="375"/></g><g class="cls-5"><rect class="cls-6" x="121.53" y="91.96" width="131.25" height="131.25"/></g><g class="cls-7"><path d="M223.27,92.91H113.67V-16.69h109.6V92.91ZM110.72-19.64V95.86h115.5V-19.64Z" transform="translate(0 19.64)"/></g><g class="cls-8"><path d="M258.79,287.5H149.19V177.9h109.6V287.5ZM146.24,175v115.5h115.5V175Z" transform="translate(0 19.64)"/></g><g class="cls-4"><text class="cls-9" transform="translate(145.89 179.57)">L</text><text class="cls-9" transform="translate(184.73 179.57)">S</text><text class="cls-10" transform="translate(113.41 257.75)">L</text><text class="cls-10" transform="translate(134.14 257.75)">e</text><text class="cls-10" transform="translate(154.27 257.75)">x</text><text class="cls-10" transform="translate(177.36 257.75)"> </text><text class="cls-10" transform="translate(186.58 257.75)">&amp;</text><text class="cls-10" transform="translate(210.4 257.75)"> </text><text class="cls-10" transform="translate(219.62 257.75)">S</text><text class="cls-10" transform="translate(237.14 257.75)">a</text><text class="cls-11" transform="translate(72.73 285.01)"> </text><text class="cls-11" transform="translate(78.63 285.01)">A</text><text class="cls-11" transform="translate(91.69 285.01)">B</text><text class="cls-11" transform="translate(102.8 285.01)">O</text><text class="cls-11" transform="translate(117.83 285.01)">G</text><text class="cls-11" transform="translate(132.22 285.01)">A</text><text class="cls-11" transform="translate(145.29 285.01)">D</text><text class="cls-11" transform="translate(159.83 285.01)">O</text><text class="cls-11" transform="translate(174.85 285.01)"> </text><text class="cls-11" transform="translate(180.75 285.01)">S</text><text class="cls-11" transform="translate(190.14 285.01)">A</text><text class="cls-11" transform="translate(203.2 285.01)">N</text><text class="cls-11" transform="translate(218.27 285.01)">I</text><text class="cls-11" transform="translate(225.53 285.01)">T</text><text class="cls-11" transform="translate(237.14 285.01)">A</text><text class="cls-11" transform="translate(250.2 285.01)">R</text><text class="cls-11" transform="translate(262.73 285.01)">I</text><text class="cls-11" transform="translate(269.99 285.01)">S</text><text class="cls-11" transform="translate(279.38 285.01)">T</text><text class="cls-11" transform="translate(290.99 285.01)">A</text></g></svg>