<svg width="14" height="14" viewBox="0 0 14 14" fill="none" xmlns="http://www.w3.org/2000/svg">
<path d="M7.69998 2.10001C7.31338 2.10001 6.99998 2.41341 6.99998 2.80001C6.99998 3.18661 7.31338 3.50001 7.69998 3.50001H9.51003L5.105 7.90503C4.83163 8.1784 4.83163 8.62161 5.105 8.89498C5.37837 9.16835 5.82158 9.16835 6.09495 8.89498L10.5 4.48996V6.30001C10.5 6.6866 10.8134 7.00001 11.2 7.00001C11.5866 7.00001 11.9 6.6866 11.9 6.30001V2.80001C11.9 2.41341 11.5866 2.10001 11.2 2.10001H7.69998Z" fill="#45464A"/>
<path d="M3.49998 3.50001C2.72678 3.50001 2.09998 4.12681 2.09998 4.90001V10.5C2.09998 11.2732 2.72678 11.9 3.49998 11.9H9.09997C9.87317 11.9 10.5 11.2732 10.5 10.5V8.40001C10.5 8.01341 10.1866 7.70001 9.79997 7.70001C9.41338 7.70001 9.09997 8.01341 9.09997 8.40001V10.5H3.49998V4.90001L5.59998 4.90001C5.98657 4.90001 6.29998 4.58661 6.29998 4.20001C6.29998 3.81341 5.98657 3.50001 5.59998 3.50001H3.49998Z" fill="#45464A"/>
</svg>
