<svg width="625" height="150" viewBox="0 0 625 150" fill="none" xmlns="http://www.w3.org/2000/svg">
<path fill-rule="evenodd" clip-rule="evenodd" d="M341.137 0.91924C338.938 0.306414 336.671 0 334.336 0C331.176 0 328.325 0.442597 325.783 1.32779C323.241 2.21298 321.042 3.43864 319.188 5.00475C317.401 6.57086 316.027 8.40934 315.066 10.5202C314.104 12.631 313.623 14.9461 313.623 17.4655C313.623 21.4149 314.344 24.9556 315.787 28.0879C316.289 29.1058 316.859 30.12 317.498 31.1304C316.393 31.6787 315.341 32.2988 314.344 32.9905C312.97 33.9438 311.699 34.9992 310.532 36.1567C309.432 37.2462 308.471 38.5059 307.646 39.9358C306.822 41.3658 306.169 42.9319 305.688 44.6342C305.276 46.2684 305.07 48.0728 305.07 50.0475C305.07 53.1116 305.517 55.9034 306.41 58.4227C307.303 60.8741 308.608 63.087 310.326 65.0617C312.112 66.9683 314.276 68.6025 316.818 69.9643C319.359 71.2581 322.279 72.2454 325.577 72.9263C328.943 73.6072 332.618 73.9477 336.603 73.9477C340.518 73.9477 344.056 73.3689 347.217 72.2113C350.377 70.9857 353.09 69.2834 355.357 67.1045C355.46 67.0089 355.561 66.9126 355.662 66.8157C358.48 69.0236 361.298 70.5498 364.116 71.3942C367.07 72.2794 369.75 72.7561 372.154 72.8242C374.627 72.8923 376.516 72.9263 377.822 72.9263V71.9049C375.211 71.7006 372.669 70.8835 370.196 69.4536C367.792 68.0237 365.422 66.3214 363.086 64.3467C361.982 63.3848 360.885 62.4472 359.797 61.5337C360.167 60.8906 360.508 60.2281 360.819 59.5463C362.193 56.6183 363.052 53.452 363.395 50.0475C363.739 46.6429 363.532 43.0681 362.777 39.323C362.502 37.9612 362.674 36.8377 363.292 35.9525C363.979 35.0673 365.078 34.6247 366.59 34.6247H368.135V33.6033H347.629V34.6247H349.174C350.823 34.6247 352.163 35.0673 353.193 35.9525C354.293 36.8377 355.186 37.9612 355.873 39.323C357.109 41.7743 357.796 44.4299 357.934 47.2897C358.071 50.0815 357.693 52.8733 356.8 55.665C356.517 56.5494 356.186 57.4099 355.806 58.2465C353.081 55.9821 350.596 53.896 348.35 51.9881C346.014 49.9453 343.919 48.1068 342.064 46.4726C340.278 44.7703 338.629 43.2723 337.118 41.9786C331.828 37.2803 327.775 33.0926 324.958 29.4156C322.142 25.7387 320.733 21.7553 320.733 17.4655C320.733 13.3119 322.004 9.87331 324.546 7.14964C327.157 4.42597 330.42 3.06413 334.336 3.06413C337.29 3.06413 339.832 3.711 341.961 5.00475C344.16 6.2304 345.877 8.03483 347.114 10.418C348.35 12.7332 348.968 15.5249 348.968 18.7933H349.999L351.854 7.25178C350.617 5.75376 349.071 4.49406 347.217 3.47268C345.362 2.38321 343.335 1.53207 341.137 0.91924ZM352.139 63.9744C350.702 62.8138 349.336 61.7123 348.041 60.6698C345.911 58.8313 343.919 57.163 342.064 55.665C340.278 54.0989 338.595 52.6349 337.015 51.2731C335.435 49.8432 333.889 48.4473 332.378 47.0855C328.393 43.4085 324.993 40.1061 322.176 37.1781C321.096 36.0011 320.112 34.8188 319.224 33.6313C318.272 34.4988 317.435 35.4427 316.714 36.4631C315.753 37.7569 314.963 39.1528 314.344 40.6508C313.726 42.0807 313.28 43.6128 313.005 45.247C312.73 46.8131 312.593 48.4132 312.593 50.0475C312.593 53.1116 313.108 55.9374 314.138 58.5249C315.237 61.0443 316.783 63.2232 318.775 65.0617C320.836 66.9002 323.344 68.3301 326.298 69.3515C329.321 70.3729 332.756 70.8835 336.603 70.8835C340.106 70.8835 343.198 70.2026 345.877 68.8408C348.356 67.551 350.443 65.9289 352.139 63.9744ZM118.403 69.7601V8.88604C118.472 7.11565 119.125 5.61763 120.361 4.39198C121.666 3.09824 123.212 2.45136 124.998 2.45136H125.617H126.338V1.42999H118.403H118.094H112.014H111.705H103.77V2.45136H104.389H105.11C106.896 2.45136 108.408 3.09824 109.644 4.39198C110.949 5.61763 111.636 7.11565 111.705 8.88604V65.4703C111.636 67.2407 110.949 68.7728 109.644 70.0665C108.408 71.2922 106.896 71.905 105.11 71.905H104.389H103.77V72.9264H111.705H112.014H118.094H118.403H129.429H146.226H146.535L152.512 56.3801H151.482C150.382 58.9675 149.111 61.2827 147.669 63.3254C146.226 65.3682 144.337 66.9683 142.001 68.1259C139.734 69.2154 136.78 69.7601 133.139 69.7601H118.403ZM175.176 40.7531V14.8101H196.507C198.087 14.8101 199.324 15.3208 200.217 16.3422C201.178 17.3635 201.659 18.5892 201.659 20.0191V21.5512H202.793V14.8101V14.5037V12.6652V11.6438V10.0096C201.9 10.3501 200.251 10.7246 197.847 11.1331C195.442 11.4736 193.175 11.6438 191.045 11.6438H175.176H174.97H170.127H168.581H161.162V12.6652H161.883H162.604C164.322 12.6652 165.73 13.1759 166.829 14.1973C167.928 15.2186 168.512 16.5124 168.581 18.0785V66.3896C168.512 67.8876 167.928 69.1814 166.829 70.2708C165.73 71.3603 164.322 71.905 162.604 71.905H161.883H161.162V72.9264H168.581H170.127H174.97H175.176H187.336H202.69H202.999L208.667 58.3207H207.636C206.674 60.4997 205.541 62.4743 204.236 64.2447C202.93 65.947 201.213 67.3089 199.083 68.3302C197.022 69.2835 194.274 69.7602 190.839 69.7602H175.176V43.8172H192.694C194.137 43.8172 195.202 44.2598 195.889 45.145C196.576 45.9621 196.919 46.9494 196.919 48.107V49.4348H198.053V43.8172V43.6129V40.9573V40.7531V35.1355H196.919V36.4633C196.919 37.6208 196.576 38.6422 195.889 39.5274C195.202 40.3445 194.137 40.7531 192.694 40.7531H175.176ZM219.351 14.1971C220.773 15.0106 221.956 15.9322 222.899 16.9617L240.888 42.654L221.922 66.6913L221.824 66.6959C220.725 68.0577 219.316 69.2834 217.599 70.3728C215.881 71.3942 213.992 71.9049 211.931 71.9049H210.592V72.9263H233.056V71.9049H232.438H231.819C230.514 71.9049 229.381 71.3261 228.419 70.1686C227.526 68.9429 227.526 67.6832 228.419 66.3895L228.39 66.3908L243.433 46.288L257.626 66.5595C258.404 67.7626 258.355 68.9656 257.478 70.1686C256.654 71.3261 255.555 71.9049 254.181 71.9049H253.562H252.944V72.9263H277.366V71.9049H276.027C273.966 71.9049 272.042 71.3942 270.256 70.3728C268.747 69.4523 267.507 68.4588 266.538 67.3925L247.725 40.6516L264.261 17.8749L264.279 17.8741C265.31 16.4441 266.684 15.2185 268.401 14.1971C270.187 13.1757 272.111 12.6651 274.172 12.6651H275.615V11.6437H252.738V12.6651H253.356H253.975C255.349 12.6651 256.448 13.2779 257.272 14.5035C258.113 15.5932 258.193 16.7433 257.511 17.9537L244.898 36.6335L231.642 17.792C231.006 16.6669 231.099 15.5707 231.922 14.5035C232.815 13.2779 233.915 12.6651 235.22 12.6651H235.838H236.456V11.6437H212.24V12.6651H213.58C215.641 12.6651 217.564 13.1757 219.351 14.1971ZM420.137 0C421.236 0 422.404 0.0680923 423.641 0.204278C424.946 0.34046 426.182 0.544734 427.35 0.817102C427.742 0.88178 428.12 0.949871 428.483 1.02137H433.018V2.24703V3.16627V13.5843H432.09C432.09 10.3159 430.957 7.76247 428.69 5.92399C426.423 4.01742 423.675 3.06413 420.446 3.06413C416.668 3.06413 413.611 4.25574 411.275 6.63895C408.939 8.95407 407.771 11.6777 407.771 14.81C407.771 16.1037 408.046 17.6358 408.596 19.4062C409.214 21.1085 410.313 22.7086 411.893 24.2066L432.194 42.7957C434.254 44.7023 435.628 46.745 436.315 48.9239C437.002 51.1029 437.346 53.2137 437.346 55.2565C437.346 60.9081 435.594 65.5043 432.09 69.0451C428.656 72.5858 423.984 74.3562 418.076 74.3562C416.427 74.3562 414.469 74.186 412.202 73.8455C410.004 73.5051 407.84 72.9263 405.71 72.1092C403.649 71.224 401.932 70.1005 400.558 68.7387C400.352 67.6492 400.249 66.2874 400.249 64.6532C400.249 63.0189 400.386 61.3166 400.661 59.5463C400.936 57.7078 401.314 56.0395 401.794 54.5415H402.722C402.378 58.0142 402.825 61.0443 404.061 63.6318C405.298 66.2193 407.084 68.1939 409.42 69.5558C411.824 70.8495 414.538 71.4283 417.561 71.2921C421.339 71.0878 424.568 69.7941 427.247 67.4109C429.995 64.9596 431.369 61.6912 431.369 57.6056C431.369 55.631 431.026 53.8606 430.339 52.2945C429.652 50.6603 428.656 49.2644 427.35 48.1068L407.565 29.9263C405.504 28.0198 404.061 25.943 403.237 23.6959C402.413 21.3808 402.001 19.2359 402.001 17.2613C402.001 14.4014 402.688 11.6437 404.061 8.98811C405.435 6.33254 407.462 4.18765 410.141 2.55345C412.889 0.85115 416.221 0 420.137 0ZM503.051 65.4701L477.836 10.2137H476.909C476.84 10.8946 476.599 11.8138 476.187 12.9714C475.775 14.1289 475.294 15.3206 474.745 16.5462C474.264 17.7038 473.817 18.6911 473.405 19.5082L472.89 20.7338L451.384 66.4224C450.392 68.2485 449.248 69.5994 447.952 70.4749C446.441 71.4282 444.964 71.9048 443.521 71.9048H443.109H442.697V72.9262H462.379V71.9048H461.554C460.318 71.9048 459.219 71.3601 458.257 70.2706C457.397 69.2359 457.224 67.8477 457.736 66.1058L463.667 52.1922H489.702L495.462 66.1031C495.975 67.8462 495.802 69.2354 494.942 70.2706C493.98 71.3601 492.915 71.9048 491.747 71.9048H490.923V72.9262H512.048V71.9048H511.636H511.223C509.849 71.9048 508.407 71.4282 506.895 70.4749C505.384 69.4535 504.113 67.7853 503.083 65.4701H503.051ZM488.433 49.1281L476.874 21.2108L464.973 49.1281H488.433ZM16.0076 118.698L27.6333 146.259H27.6338C28.0676 147.234 28.646 147.936 29.369 148.366C30.0921 148.768 30.7862 148.968 31.4513 148.968H31.6249H31.7984V149.398H22.0376V148.968H22.4281C22.9775 148.968 23.4692 148.739 23.903 148.28C24.2956 147.839 24.3803 147.246 24.157 146.499L21.2867 138.95H9.58628L6.60712 146.491C6.47358 146.965 6.46918 147.375 6.59393 147.721C6.73854 148.123 6.9699 148.438 7.28803 148.667C7.63508 148.868 7.98213 148.968 8.32918 148.968H8.71961V149.398H0V148.968H0.216906H0.39043C1.05561 148.968 1.73525 148.768 2.42934 148.366C3.07799 147.981 3.62189 147.376 4.06104 146.551L14.0121 123.126L14.229 122.61C14.4025 122.238 14.5905 121.793 14.793 121.278C15.0243 120.762 15.2123 120.26 15.3569 119.773C15.5305 119.285 15.6172 118.927 15.6172 118.698H16.0076ZM15.5487 123.857L20.7963 137.66H10.0959L15.5487 123.857ZM48.1506 119.3H45.6779H43.5522H42.9883H42.8581H39.5178L39.5612 119.729H39.8215H40.0817C40.8337 119.729 41.4844 120.002 42.0339 120.546C42.5834 121.062 42.8581 121.693 42.8581 122.438V146.259C42.8581 147.005 42.5834 147.65 42.0339 148.194C41.4844 148.71 40.8337 148.968 40.0817 148.968H39.8215H39.5612L39.5178 149.398H42.8581H42.9883H45.2875H45.6779H50.1028C52.2429 149.398 54.0649 149.068 55.5688 148.409C57.1016 147.721 58.2584 146.775 59.0393 145.571C59.8202 144.339 60.2106 142.92 60.2106 141.315C60.2106 139.881 59.9069 138.591 59.2996 137.445C58.7212 136.269 57.868 135.295 56.7401 134.521C55.6411 133.747 54.3252 133.245 52.7924 133.016C53.6022 132.787 54.3686 132.4 55.0916 131.855C55.8146 131.282 56.4075 130.551 56.8702 129.662C57.333 128.745 57.5643 127.684 57.5643 126.48C57.5643 125.047 57.2028 123.8 56.4798 122.739C55.7568 121.65 54.6867 120.804 53.2696 120.202C51.8814 119.601 50.1751 119.3 48.1506 119.3ZM45.6779 147.85H49.9293C51.4331 147.85 52.7057 147.592 53.7468 147.076C54.7879 146.532 55.5833 145.743 56.1328 144.711C56.6823 143.679 56.957 142.447 56.957 141.014C56.957 139.408 56.6389 138.104 56.0026 137.101C55.3953 136.097 54.6 135.338 53.6167 134.822C52.6334 134.306 51.5633 133.962 50.4065 133.79C49.2785 133.589 48.194 133.489 47.1529 133.489V133.102C47.818 133.102 48.5555 133.03 49.3653 132.887C50.1751 132.744 50.9559 132.457 51.7079 132.027C52.4598 131.597 53.0816 130.966 53.5733 130.135C54.0649 129.275 54.3108 128.157 54.3108 126.781C54.3108 125.491 54.0649 124.388 53.5733 123.47C53.1105 122.553 52.402 121.865 51.4476 121.406C50.5221 120.919 49.3653 120.675 47.9771 120.675H45.6779V147.85ZM86.56 118.698C89.6545 118.698 92.3731 119.357 94.7157 120.676C97.0582 121.965 98.8802 123.786 100.182 126.136C101.512 128.487 102.177 131.224 102.177 134.349C102.177 137.473 101.512 140.211 100.182 142.562C98.8802 144.912 97.0582 146.747 94.7157 148.065C92.3731 149.355 89.6545 150 86.56 150C83.4944 150 80.7903 149.355 78.4477 148.065C76.1051 146.747 74.2687 144.912 72.9383 142.562C71.6369 140.211 70.9862 137.473 70.9862 134.349C70.9862 131.224 71.6369 128.487 72.9383 126.136C74.2687 123.786 76.1051 121.965 78.4477 120.676C80.7903 119.357 83.4944 118.698 86.56 118.698ZM86.56 148.71C89.0183 148.71 91.1584 148.108 92.9804 146.904C94.8313 145.7 96.2629 144.023 97.2751 141.874C98.3163 139.724 98.8369 137.215 98.8369 134.349C98.8369 131.482 98.3163 128.974 97.2751 126.824C96.2629 124.674 94.8313 122.997 92.9804 121.793C91.1584 120.59 89.0183 119.988 86.56 119.988C84.1307 119.988 81.9905 120.59 80.1396 121.793C78.3176 122.997 76.886 124.674 75.8449 126.824C74.8326 128.974 74.3265 131.482 74.3265 134.349C74.3265 137.215 74.8326 139.724 75.8449 141.874C76.886 144.023 78.3176 145.7 80.1396 146.904C81.9905 148.108 84.1307 148.71 86.56 148.71ZM140.691 144.453V137.359C140.633 136.069 141.356 135.424 142.86 135.424H143.511V134.994H135.008V135.424H135.702C137.177 135.424 137.915 136.069 137.915 137.359L137.871 144.969C137.061 145.743 136.136 146.417 135.095 146.99C134.054 147.535 132.94 147.965 131.754 148.28C130.598 148.567 129.383 148.71 128.11 148.71C125.681 148.682 123.541 148.08 121.69 146.904C119.839 145.7 118.393 144.023 117.352 141.874C116.311 139.724 115.79 137.215 115.79 134.349C115.79 131.482 116.311 128.974 117.352 126.824C118.393 124.674 119.839 122.997 121.69 121.793C123.541 120.59 125.681 119.988 128.11 119.988C130.019 119.988 131.726 120.289 133.229 120.891C134.733 121.493 135.977 122.367 136.96 123.513C137.972 124.631 138.695 126.022 139.129 127.684H139.52L138.652 121.621C137.813 121.077 136.873 120.59 135.832 120.16C134.82 119.701 133.678 119.343 132.405 119.085C131.133 118.827 129.701 118.698 128.11 118.698C125.045 118.698 122.341 119.357 119.998 120.676C117.656 121.965 115.819 123.786 114.489 126.136C113.187 128.487 112.537 131.224 112.537 134.349C112.537 137.473 113.187 140.211 114.489 142.562C115.819 144.883 117.656 146.704 119.998 148.022C122.341 149.312 125.045 149.972 128.11 150C130.308 150 132.217 149.728 133.837 149.183C135.485 148.61 136.873 147.893 138.001 147.033C139.129 146.173 140.026 145.313 140.691 144.453ZM165.705 118.698L177.33 146.259H177.331C177.765 147.234 178.343 147.936 179.066 148.366C179.789 148.768 180.483 148.968 181.148 148.968H181.322H181.495V149.398H171.735V148.968H172.125C172.674 148.968 173.166 148.739 173.6 148.28C173.993 147.839 174.077 147.245 173.854 146.499L170.984 138.95H159.283L156.304 146.491C156.17 146.965 156.166 147.375 156.291 147.721C156.435 148.123 156.667 148.438 156.985 148.667C157.332 148.868 157.679 148.968 158.026 148.968H158.417V149.398H149.697V148.968H149.914H150.087C150.753 148.968 151.432 148.768 152.126 148.366C152.775 147.981 153.319 147.376 153.758 146.551L163.709 123.126L163.926 122.61C164.099 122.238 164.287 121.793 164.49 121.278C164.721 120.762 164.909 120.26 165.054 119.773C165.227 119.285 165.314 118.927 165.314 118.698H165.705ZM165.246 123.857L170.493 137.66H159.793L165.246 123.857ZM212.061 121.191C209.748 119.93 207.044 119.3 203.949 119.3H195.403H194.188H192.713H192.583H189.243L189.286 119.729H189.547H189.807C190.559 119.729 191.21 120.002 191.759 120.546C192.309 121.062 192.583 121.693 192.583 122.438V146.259C192.554 147.005 192.265 147.65 191.716 148.194C191.195 148.71 190.559 148.968 189.807 148.968H189.503H189.243V149.398H192.583H192.713H194.666H195.403H203.949C207.044 149.398 209.748 148.768 212.061 147.506C214.404 146.245 216.226 144.496 217.527 142.26C218.858 139.996 219.523 137.359 219.523 134.349C219.523 131.339 218.858 128.702 217.527 126.437C216.226 124.173 214.404 122.424 212.061 121.191ZM195.403 148.108H195.533H197.876H200.696H202.995H203.949C206.436 148.108 208.591 147.535 210.413 146.388C212.264 145.242 213.695 143.636 214.708 141.572C215.749 139.509 216.269 137.101 216.269 134.349C216.269 131.597 215.749 129.189 214.708 127.125C213.695 125.061 212.264 123.456 210.413 122.309C208.562 121.163 206.407 120.589 203.949 120.589H202.951H200.522H197.615H195.403V148.108ZM245.867 118.698C248.961 118.698 251.68 119.357 254.022 120.676C256.365 121.965 258.187 123.786 259.488 126.136C260.819 128.487 261.484 131.224 261.484 134.349C261.484 137.473 260.819 140.211 259.488 142.562C258.187 144.912 256.365 146.747 254.022 148.065C251.68 149.355 248.961 150 245.867 150C242.801 150 240.097 149.355 237.754 148.065C235.412 146.747 233.575 144.912 232.245 142.562C230.943 140.211 230.293 137.473 230.293 134.349C230.293 131.224 230.943 128.487 232.245 126.136C233.575 123.786 235.412 121.965 237.754 120.676C240.097 119.357 242.801 118.698 245.867 118.698ZM245.867 148.71C248.325 148.71 250.465 148.108 252.287 146.904C254.138 145.7 255.569 144.023 256.582 141.874C257.623 139.724 258.143 137.215 258.143 134.349C258.143 131.482 257.623 128.974 256.582 126.824C255.569 124.674 254.138 122.997 252.287 121.793C250.465 120.59 248.325 119.988 245.867 119.988C243.437 119.988 241.297 120.59 239.446 121.793C237.624 122.997 236.193 124.674 235.151 126.824C234.139 128.974 233.633 131.482 233.633 134.349C233.633 137.215 234.139 139.724 235.151 141.874C236.193 144.023 237.624 145.7 239.446 146.904C241.297 148.108 243.437 148.71 245.867 148.71ZM298.057 118.784C297.536 118.726 297.045 118.698 296.582 118.698C294.934 118.698 293.531 119.056 292.374 119.773C291.246 120.461 290.393 121.364 289.815 122.481C289.236 123.599 288.947 124.76 288.947 125.964C288.947 126.796 289.121 127.699 289.468 128.673C289.815 129.619 290.422 130.493 291.29 131.296L299.619 138.95C300.168 139.437 300.588 140.025 300.877 140.713C301.166 141.372 301.311 142.117 301.311 142.949C301.311 144.668 300.732 146.044 299.575 147.076C298.447 148.08 297.088 148.624 295.498 148.71C294.225 148.768 293.083 148.524 292.07 147.979C291.087 147.406 290.335 146.575 289.815 145.485C289.294 144.396 289.106 143.121 289.251 141.659H288.86C288.658 142.289 288.499 142.992 288.383 143.765C288.267 144.511 288.21 145.227 288.21 145.915C288.21 146.603 288.253 147.177 288.34 147.635C288.918 148.209 289.641 148.682 290.509 149.054C291.405 149.398 292.316 149.642 293.242 149.785C294.196 149.929 295.02 150 295.714 150C298.202 150 300.168 149.255 301.614 147.764C303.089 146.274 303.827 144.339 303.827 141.96C303.827 141.1 303.682 140.211 303.393 139.294C303.104 138.376 302.525 137.516 301.658 136.714L293.112 128.888C292.446 128.258 291.984 127.584 291.723 126.867C291.492 126.122 291.376 125.477 291.376 124.932C291.376 123.614 291.868 122.467 292.851 121.493C293.835 120.489 295.122 119.988 296.712 119.988C298.072 119.988 299.228 120.389 300.183 121.192C301.137 121.965 301.614 123.04 301.614 124.416H302.005V120.031V119.644V119.128H300.096C299.943 119.098 299.784 119.069 299.619 119.042C299.127 118.927 298.607 118.841 298.057 118.784ZM327.497 118.698L339.123 146.259C339.557 147.234 340.135 147.936 340.858 148.366C341.581 148.768 342.275 148.968 342.941 148.968H343.114H343.288V149.398H333.527V148.968H333.917C334.467 148.968 334.958 148.739 335.392 148.28C335.785 147.839 335.87 147.245 335.646 146.499L332.776 138.95H321.076L318.096 146.491C317.963 146.965 317.958 147.375 318.083 147.721C318.228 148.123 318.459 148.438 318.777 148.667C319.124 148.868 319.471 148.968 319.818 148.968H320.209V149.398H311.489V148.968H311.706H311.88C312.545 148.968 313.225 148.768 313.919 148.366C314.567 147.981 315.111 147.376 315.55 146.552L325.501 123.126L325.718 122.61C325.892 122.238 326.08 121.793 326.282 121.278C326.514 120.762 326.702 120.26 326.846 119.773C327.02 119.285 327.107 118.927 327.107 118.698H327.497ZM327.038 123.857L332.286 137.66H321.585L327.038 123.857ZM377.513 143.661L353.871 118.654H353.437L353.61 120.245C353.755 121.306 353.827 122.567 353.827 124.029V146.345C353.827 147.062 353.567 147.678 353.047 148.194C352.526 148.71 351.904 148.968 351.181 148.968H350.747H350.357V149.398H353.827H353.958H355.693H355.823H359.293V148.968H358.903H358.469C357.746 148.968 357.124 148.71 356.604 148.194C356.083 147.678 355.823 147.062 355.823 146.345H355.818L355.786 124.994L379.466 150H379.856L379.726 149.226C379.668 148.681 379.61 147.993 379.552 147.162C379.495 146.302 379.466 145.413 379.466 144.496V122.352C379.495 121.607 379.769 120.991 380.29 120.503C380.81 119.987 381.432 119.729 382.155 119.729H382.546H382.936V119.299H379.466H379.335H377.6H377.513H374V119.729H374.433H374.824C375.576 119.729 376.198 119.987 376.689 120.503C377.21 120.991 377.485 121.607 377.513 122.352V143.661ZM399.264 122.438V146.259C399.293 147.005 399.568 147.65 400.088 148.194C400.638 148.71 401.288 148.968 402.04 148.968H402.301H402.604V149.398H399.264H399.134H396.574H396.444H393.104V148.968H393.364H393.668C394.42 148.968 395.056 148.71 395.577 148.194C396.126 147.65 396.415 147.005 396.444 146.259V122.438C396.415 121.693 396.126 121.062 395.577 120.546C395.056 120.002 394.42 119.729 393.668 119.729H393.364H393.104V119.3H396.444H396.574H399.134H399.264H402.604V119.729H402.301H402.04C401.288 119.729 400.638 120.002 400.088 120.546C399.568 121.062 399.293 121.693 399.264 122.438ZM422.797 120.547H414.641C413.918 120.575 413.311 120.833 412.819 121.321C412.328 121.808 412.082 122.41 412.082 123.127V123.857L411.648 123.9V120.547V120.418V119.73V119.257V118.483C411.937 118.597 412.371 118.712 412.95 118.827C413.557 118.941 414.222 119.042 414.945 119.128C415.668 119.214 416.333 119.257 416.941 119.257H431.473C432.11 119.257 432.775 119.214 433.469 119.128C434.192 119.042 434.857 118.941 435.464 118.827C436.072 118.712 436.506 118.597 436.766 118.483V119.257V119.73V120.418V120.547V123.9L436.332 123.857V123.127C436.332 122.41 436.072 121.808 435.551 121.321C435.06 120.833 434.467 120.575 433.773 120.547H425.617V146.259C425.646 147.005 425.921 147.65 426.441 148.194C426.991 148.71 427.641 148.968 428.393 148.968H428.654H428.957V149.398H425.617H425.487H422.927H422.797H419.457V148.968H419.717H420.021C420.773 148.968 421.409 148.71 421.93 148.194C422.479 147.65 422.768 147.005 422.797 146.259V120.547ZM458.786 118.698L470.412 146.259C470.846 147.234 471.424 147.936 472.147 148.366C472.87 148.768 473.564 148.968 474.23 148.968H474.403H474.577V149.398H464.816V148.968H465.206C465.756 148.968 466.247 148.739 466.681 148.28C467.074 147.839 467.158 147.245 466.935 146.499L464.065 138.95H452.364L449.385 146.491C449.252 146.965 449.247 147.375 449.372 147.721C449.517 148.123 449.748 148.438 450.066 148.667C450.413 148.868 450.76 148.968 451.107 148.968H451.498V149.398H442.778V148.968H442.995H443.169C443.834 148.968 444.513 148.768 445.208 148.366C445.856 147.981 446.4 147.376 446.839 146.552L456.79 123.126L457.007 122.61C457.181 122.238 457.369 121.793 457.571 121.278C457.803 120.762 457.991 120.26 458.135 119.773C458.309 119.285 458.395 118.927 458.395 118.698H458.786ZM458.327 123.857L463.574 137.66H452.874L458.327 123.857ZM494.009 119.3H488.456H487.892H485.767H485.637H482.296V119.729H482.556H482.86C483.612 119.729 484.248 120.002 484.769 120.546C485.318 121.062 485.608 121.693 485.637 122.438V146.259C485.608 147.005 485.318 147.65 484.769 148.194C484.248 148.71 483.612 148.968 482.86 148.968H482.556H482.296V149.398H485.637H485.767H488.326H488.456H491.753V148.968H491.493H491.233C490.481 148.968 489.83 148.71 489.281 148.194C488.731 147.65 488.456 147.005 488.456 146.259V120.632H489.194H491.319C492.187 120.604 493.026 120.618 493.836 120.675C495.455 120.761 496.742 121.392 497.696 122.567C498.68 123.714 499.186 125.262 499.215 127.211C499.244 127.67 499.229 128.143 499.171 128.63C499.114 129.089 499.041 129.476 498.955 129.791C498.55 131.081 497.957 132.041 497.176 132.672C496.395 133.303 495.556 133.718 494.66 133.919C493.763 134.12 492.939 134.234 492.187 134.263C491.551 134.291 491.001 134.306 490.539 134.306L489.888 134.263V134.693C490.669 134.693 491.392 134.994 492.057 135.596C492.722 136.198 493.329 136.857 493.879 137.574C493.937 137.66 494.154 137.975 494.53 138.52C494.906 139.036 495.354 139.666 495.874 140.412C496.395 141.157 496.916 141.916 497.436 142.69C497.986 143.436 498.448 144.081 498.824 144.625C499.229 145.17 499.475 145.5 499.562 145.614C500.025 146.159 500.589 146.732 501.254 147.334C501.919 147.908 502.729 148.395 503.683 148.796C504.666 149.197 505.823 149.398 507.154 149.398H509.54V148.968C508.701 148.968 507.934 148.825 507.24 148.538C506.575 148.252 505.953 147.865 505.375 147.377C504.797 146.89 504.218 146.331 503.64 145.7C503.206 145.242 502.685 144.625 502.078 143.851C501.471 143.077 500.863 142.289 500.256 141.486C499.678 140.684 499.186 140.01 498.781 139.466L498.217 138.606C497.783 138.032 497.277 137.445 496.699 136.843C496.12 136.212 495.585 135.796 495.094 135.596C496.482 135.596 497.725 135.209 498.824 134.435C499.952 133.632 500.834 132.6 501.471 131.339C502.136 130.078 502.468 128.759 502.468 127.383C502.468 126.122 502.266 125.004 501.861 124.029C501.485 123.026 500.936 122.18 500.213 121.492C499.49 120.776 498.593 120.231 497.523 119.858C496.482 119.486 495.311 119.3 494.009 119.3ZM523.457 122.438V146.259C523.486 147.005 523.761 147.65 524.282 148.194C524.831 148.71 525.482 148.968 526.234 148.968H526.494H526.798V149.398H523.457H523.327H520.768H520.638H517.297V148.968H517.557H517.861C518.613 148.968 519.249 148.71 519.77 148.194C520.319 147.65 520.609 147.005 520.638 146.259V122.438C520.609 121.693 520.319 121.062 519.77 120.546C519.249 120.002 518.613 119.729 517.861 119.729H517.557H517.297V119.3H520.638H520.768H523.327H523.457H526.798V119.729H526.494H526.234C525.482 119.729 524.831 120.002 524.282 120.546C523.761 121.062 523.486 121.693 523.457 122.438ZM547.338 118.784C546.817 118.726 546.326 118.698 545.863 118.698C544.215 118.698 542.812 119.056 541.655 119.773C540.527 120.461 539.674 121.364 539.096 122.481C538.517 123.599 538.228 124.76 538.228 125.964C538.228 126.796 538.401 127.699 538.749 128.673C539.096 129.619 539.703 130.493 540.571 131.296L548.9 138.95C549.449 139.437 549.869 140.025 550.158 140.713C550.447 141.372 550.592 142.117 550.592 142.949C550.592 144.668 550.013 146.044 548.856 147.076C547.728 148.08 546.369 148.624 544.779 148.71C543.506 148.768 542.364 148.524 541.351 147.979C540.368 147.406 539.616 146.575 539.096 145.485C538.575 144.396 538.387 143.121 538.532 141.659H538.141C537.939 142.289 537.78 142.992 537.664 143.765C537.548 144.511 537.49 145.227 537.49 145.915C537.49 146.603 537.534 147.177 537.621 147.635C538.199 148.209 538.922 148.682 539.79 149.054C540.686 149.398 541.597 149.642 542.523 149.785C543.477 149.929 544.301 150 544.995 150C547.483 150 549.449 149.255 550.895 147.764C552.37 146.274 553.108 144.339 553.108 141.96C553.108 141.1 552.963 140.211 552.674 139.294C552.385 138.376 551.806 137.516 550.939 136.714L542.393 128.888C541.727 128.258 541.265 127.584 541.004 126.867C540.773 126.122 540.657 125.477 540.657 124.932C540.657 123.614 541.149 122.467 542.132 121.493C543.116 120.489 544.403 119.988 545.993 119.988C547.352 119.988 548.509 120.389 549.464 121.192C550.418 121.965 550.895 123.04 550.895 124.416H551.286V120.031V119.644V119.128H549.377C549.224 119.098 549.065 119.069 548.9 119.042C548.408 118.927 547.888 118.841 547.338 118.784ZM565.065 120.547H573.221V146.259C573.192 147.005 572.902 147.65 572.353 148.194C571.832 148.71 571.196 148.968 570.444 148.968H570.141H569.88V149.398H573.221H573.351H575.91H576.04H579.381V148.968H579.077H578.817C578.065 148.968 577.414 148.71 576.865 148.194C576.344 147.65 576.069 147.005 576.04 146.259V120.547H584.196C584.89 120.575 585.483 120.833 585.975 121.321C586.495 121.808 586.755 122.41 586.755 123.127V123.857L587.189 123.9V120.547V120.418V119.73V119.257V118.483C586.929 118.597 586.495 118.712 585.888 118.827C585.281 118.941 584.615 119.042 583.892 119.128C583.198 119.214 582.533 119.257 581.897 119.257H567.364C566.757 119.257 566.092 119.214 565.369 119.128C564.646 119.042 563.98 118.941 563.373 118.827C562.795 118.712 562.361 118.597 562.072 118.483V119.257V119.73V120.418V120.547V123.9L562.505 123.857V123.127C562.505 122.41 562.751 121.808 563.243 121.321C563.735 120.833 564.342 120.575 565.065 120.547ZM620.835 146.259L609.209 118.698H608.819C608.819 118.927 608.732 119.285 608.558 119.773C608.414 120.26 608.226 120.762 607.994 121.278C607.792 121.793 607.604 122.238 607.43 122.61L607.214 123.126L597.263 146.551C596.823 147.375 596.279 147.98 595.631 148.366C594.937 148.768 594.257 148.968 593.592 148.968H593.418H593.201V149.398H601.921V148.968H601.531C601.184 148.968 600.836 148.868 600.489 148.667C600.171 148.438 599.94 148.123 599.795 147.721C599.671 147.375 599.675 146.965 599.809 146.49L602.788 138.95H614.488L617.358 146.499C617.582 147.245 617.497 147.839 617.104 148.28C616.671 148.739 616.179 148.968 615.629 148.968H615.239V149.398H625V148.968H624.826H624.653C623.988 148.968 623.293 148.768 622.57 148.366C621.847 147.936 621.269 147.234 620.835 146.259ZM613.998 137.66L608.75 123.857L603.297 137.66H613.998Z" fill="#F7F7F7"/>
</svg>
