<svg width="200" height="48" viewBox="0 0 200 48" fill="none" xmlns="http://www.w3.org/2000/svg">
<path fill-rule="evenodd" clip-rule="evenodd" d="M109.164 0.294157C108.46 0.0980523 107.735 0 106.987 0C105.976 0 105.064 0.141631 104.25 0.424893C103.437 0.708155 102.734 1.10036 102.14 1.60152C101.568 2.10267 101.129 2.69099 100.821 3.36646C100.513 4.04193 100.359 4.78277 100.359 5.58897C100.359 6.85276 100.59 7.98581 101.052 8.98812C101.213 9.31386 101.395 9.6384 101.599 9.96174C101.246 10.1372 100.909 10.3356 100.59 10.5569C100.151 10.862 99.7438 11.1997 99.3701 11.5702C99.0184 11.9188 98.7106 12.3219 98.4468 12.7795C98.183 13.237 97.9742 13.7382 97.8203 14.2829C97.6884 14.8059 97.6224 15.3833 97.6224 16.0152C97.6224 16.9957 97.7653 17.8891 98.0511 18.6953C98.3369 19.4797 98.7546 20.1879 99.3042 20.8197C99.8757 21.4298 100.568 21.9528 101.382 22.3886C102.195 22.8026 103.129 23.1185 104.184 23.3364C105.262 23.5543 106.438 23.6633 107.713 23.6633C108.966 23.6633 110.098 23.478 111.109 23.1076C112.121 22.7154 112.989 22.1707 113.714 21.4734C113.747 21.4428 113.78 21.412 113.812 21.381C114.714 22.0875 115.615 22.5759 116.517 22.8462C117.463 23.1294 118.32 23.2819 119.089 23.3037C119.881 23.3255 120.485 23.3364 120.903 23.3364V23.0096C120.068 22.9442 119.254 22.6827 118.463 22.2252C117.693 21.7676 116.935 21.2228 116.187 20.591C115.834 20.2831 115.483 19.9831 115.135 19.6908C115.253 19.485 115.362 19.273 115.462 19.0548C115.902 18.1179 116.176 17.1047 116.286 16.0152C116.396 14.9257 116.33 13.7818 116.089 12.5834C116.001 12.1476 116.056 11.788 116.253 11.5048C116.473 11.2215 116.825 11.0799 117.309 11.0799H117.803V10.7531H111.241V11.0799H111.736C112.263 11.0799 112.692 11.2215 113.022 11.5048C113.374 11.788 113.659 12.1476 113.879 12.5834C114.275 13.3678 114.495 14.2176 114.539 15.1327C114.583 16.0261 114.462 16.9194 114.176 17.8128C114.085 18.0958 113.979 18.3712 113.858 18.6389C112.986 17.9143 112.191 17.2467 111.472 16.6362C110.725 15.9825 110.054 15.3942 109.461 14.8712C108.889 14.3265 108.361 13.8471 107.878 13.4331C106.185 11.9297 104.888 10.5896 103.987 9.41301C103.085 8.23638 102.635 6.9617 102.635 5.58897C102.635 4.25982 103.041 3.15946 103.855 2.28788C104.69 1.41631 105.734 0.980522 106.987 0.980522C107.933 0.980522 108.746 1.18752 109.428 1.60152C110.131 1.99373 110.681 2.57115 111.076 3.33377C111.472 4.07461 111.67 4.96798 111.67 6.01387H112L112.593 2.32057C112.197 1.8412 111.703 1.4381 111.109 1.11126C110.516 0.762628 109.867 0.490261 109.164 0.294157ZM112.684 20.4718C112.224 20.1004 111.787 19.7479 111.373 19.4143C110.692 18.826 110.054 18.2922 109.461 17.8128C108.889 17.3117 108.35 16.8432 107.845 16.4074C107.339 15.9498 106.844 15.5031 106.361 15.0673C105.086 13.8907 103.998 12.8339 103.096 11.897C102.751 11.5203 102.436 11.142 102.152 10.762C101.847 11.0396 101.579 11.3417 101.349 11.6682C101.041 12.0822 100.788 12.5289 100.59 13.0083C100.392 13.4658 100.249 13.9561 100.162 14.479C100.074 14.9802 100.03 15.4922 100.03 16.0152C100.03 16.9957 100.194 17.9 100.524 18.728C100.876 19.5342 101.371 20.2314 102.008 20.8197C102.668 21.4081 103.47 21.8656 104.415 22.1925C105.383 22.5193 106.482 22.6827 107.713 22.6827C108.834 22.6827 109.823 22.4648 110.681 22.0291C111.474 21.6163 112.142 21.0973 112.684 20.4718ZM37.889 22.3232V2.84353C37.911 2.27701 38.1199 1.79764 38.5156 1.40544C38.9332 0.991436 39.4279 0.784437 39.9994 0.784437H40.1973H40.4281V0.457597H37.889H37.7901H35.8446H35.7456H33.2065V0.784437H33.4044H33.6352C34.2068 0.784437 34.6904 0.991436 35.0861 1.40544C35.5038 1.79764 35.7237 2.27701 35.7456 2.84353V20.9505C35.7237 21.517 35.5038 22.0073 35.0861 22.4213C34.6904 22.8135 34.2068 23.0096 33.6352 23.0096H33.4044H33.2065V23.3364H35.7456H35.8446H37.7901H37.889H41.4174H46.7924H46.8913L48.8038 18.0416H48.4741C48.1224 18.8696 47.7157 19.6105 47.254 20.2641C46.7924 20.9178 46.1878 21.4299 45.4404 21.8003C44.7149 22.1489 43.7696 22.3232 42.6045 22.3232H37.889ZM56.0564 13.041V4.73923H62.8822C63.3878 4.73923 63.7836 4.90265 64.0693 5.22949C64.3771 5.55633 64.531 5.94854 64.531 6.40612V6.89638H64.8937V4.73923V4.64118V4.05286V3.72602V3.20308C64.6079 3.31203 64.0803 3.43187 63.3109 3.5626C62.5415 3.67155 61.816 3.72602 61.1345 3.72602H56.0564H55.9904H54.4406H53.9459H51.5717V4.05286H51.8025H52.0334C52.583 4.05286 53.0336 4.21628 53.3854 4.54312C53.7371 4.86997 53.924 5.28397 53.9459 5.78512V21.2447C53.924 21.724 53.7371 22.138 53.3854 22.4867C53.0336 22.8353 52.583 23.0096 52.0334 23.0096H51.8025H51.5717V23.3365H53.9459H54.4406H55.9904H56.0564H59.9474H64.8607H64.9597L66.7733 18.6626H66.4436C66.1358 19.3599 65.7731 19.9918 65.3554 20.5583C64.9377 21.103 64.3881 21.5388 63.7066 21.8657C63.0471 22.1707 62.1678 22.3232 61.0686 22.3232H56.0564V14.0215H61.6621C62.1238 14.0215 62.4645 14.1631 62.6844 14.4464C62.9042 14.7079 63.0141 15.0238 63.0141 15.3942V15.8191H63.3769V14.0215V13.9561V13.1063V13.041V11.2434H63.0141V11.6682C63.0141 12.0387 62.9042 12.3655 62.6844 12.6488C62.4645 12.9102 62.1238 13.041 61.6621 13.041H56.0564ZM70.1922 4.54308C70.6474 4.80341 71.026 5.0983 71.3278 5.42774L77.0843 13.6493L71.0152 21.3412L70.9836 21.3427C70.6319 21.7785 70.1812 22.1707 69.6316 22.5193C69.082 22.8461 68.4775 23.0096 67.818 23.0096H67.3893V23.3364H74.5779V23.0096H74.38H74.1822C73.7645 23.0096 73.4018 22.8244 73.094 22.4539C72.8082 22.0617 72.8082 21.6586 73.094 21.2446L73.0847 21.2451L77.8985 14.8122L82.4404 21.2992C82.6893 21.6841 82.6735 22.069 82.393 22.4539C82.1292 22.8244 81.7775 23.0096 81.3378 23.0096H81.14H80.9421V23.3364H88.7572V23.0096H88.3286C87.6691 23.0096 87.0535 22.8461 86.482 22.5193C85.999 22.2247 85.6024 21.9068 85.2921 21.5656L79.2719 13.0085L84.5634 5.71997L84.5694 5.7197C84.8991 5.26213 85.3388 4.86992 85.8884 4.54308C86.46 4.21624 87.0755 4.05282 87.735 4.05282H88.1967V3.72598H80.8762V4.05282H81.074H81.2719C81.7115 4.05282 82.0633 4.24892 82.3271 4.64113C82.5961 4.98984 82.6216 5.35786 82.4036 5.74518L78.3672 11.7227L74.1254 5.69341C73.9218 5.33339 73.9517 4.98263 74.2152 4.64113C74.5009 4.24892 74.8527 4.05282 75.2704 4.05282H75.4682H75.6661V3.72598H67.9169V4.05282H68.3456C69.0051 4.05282 69.6206 4.21624 70.1922 4.54308ZM134.444 0C134.796 0 135.169 0.0217895 135.565 0.065369C135.983 0.108947 136.378 0.174315 136.752 0.261473C136.877 0.28217 136.998 0.303959 137.115 0.32684H138.566V0.71905V1.01321V4.34698H138.269C138.269 3.30109 137.906 2.48399 137.181 1.89568C136.455 1.28557 135.576 0.980522 134.543 0.980522C133.334 0.980522 132.355 1.36184 131.608 2.12446C130.861 2.8653 130.487 3.73688 130.487 4.73919C130.487 5.15319 130.575 5.64345 130.751 6.20997C130.948 6.7547 131.3 7.26676 131.806 7.74612L138.302 13.6946C138.961 14.3047 139.401 14.9584 139.621 15.6557C139.841 16.3529 139.951 17.0284 139.951 17.6821C139.951 19.4906 139.39 20.9614 138.269 22.0944C137.17 23.2275 135.675 23.794 133.784 23.794C133.257 23.794 132.63 23.7395 131.905 23.6306C131.201 23.5216 130.509 23.3364 129.827 23.0749C129.168 22.7917 128.618 22.4322 128.179 21.9964C128.113 21.6477 128.08 21.212 128.08 20.689C128.08 20.1661 128.124 19.6213 128.212 19.0548C128.299 18.4665 128.42 17.9326 128.574 17.4533H128.871C128.761 18.5645 128.904 19.5342 129.3 20.3622C129.695 21.1902 130.267 21.8221 131.014 22.2578C131.784 22.6718 132.652 22.857 133.619 22.8135C134.829 22.7481 135.862 22.3341 136.719 21.5715C137.598 20.7871 138.038 19.7412 138.038 18.4338C138.038 17.8019 137.928 17.2354 137.708 16.7342C137.489 16.2113 137.17 15.7646 136.752 15.3942L130.421 9.57643C129.761 8.96632 129.3 8.30175 129.036 7.5827C128.772 6.84186 128.64 6.1555 128.64 5.52361C128.64 4.60845 128.86 3.72598 129.3 2.8762C129.739 2.02641 130.388 1.34005 131.245 0.817103C132.125 0.272368 133.191 0 134.444 0ZM160.976 20.9504L152.908 3.26838H152.611C152.589 3.48627 152.512 3.78043 152.38 4.15085C152.248 4.52126 152.094 4.90258 151.918 5.29479C151.764 5.66521 151.621 5.98115 151.49 6.24262L151.325 6.63483L144.443 21.2552C144.125 21.8395 143.759 22.2718 143.345 22.552C142.861 22.857 142.388 23.0095 141.927 23.0095H141.795H141.663V23.3364H147.961V23.0095H147.697C147.302 23.0095 146.95 22.8352 146.642 22.4866C146.367 22.1555 146.312 21.7113 146.476 21.1539L148.373 16.7015H156.705L158.548 21.153C158.712 21.7108 158.657 22.1553 158.381 22.4866C158.074 22.8352 157.733 23.0095 157.359 23.0095H157.095V23.3364H163.855V23.0095H163.723H163.592C163.152 23.0095 162.69 22.857 162.207 22.552C161.723 22.2251 161.316 21.6913 160.986 20.9504H160.976ZM156.299 15.721L152.6 6.78745L148.791 15.721H156.299ZM5.12245 37.9832L8.84266 46.803H8.84281C8.98163 47.1149 9.16673 47.3396 9.39809 47.4772C9.62946 47.6056 9.85157 47.6698 10.0644 47.6698H10.12H10.1755V47.8074H7.05204V47.6698H7.17698C7.35281 47.6698 7.51014 47.5965 7.64896 47.4497C7.77461 47.3085 7.8017 47.1186 7.73022 46.8797L6.81174 44.4639H3.06761L2.11428 46.877C2.07155 47.0288 2.07014 47.16 2.11006 47.2708C2.15633 47.3992 2.23037 47.5001 2.33217 47.5735C2.44323 47.6377 2.55428 47.6698 2.66534 47.6698H2.79028V47.8074H0V47.6698H0.0694098H0.124938C0.337795 47.6698 0.555279 47.6056 0.77739 47.4772C0.984959 47.3538 1.15901 47.1602 1.29954 46.8965L4.48388 39.4005L4.55329 39.2353C4.60881 39.1161 4.66897 38.9739 4.73375 38.8088C4.80779 38.6437 4.86794 38.4832 4.91422 38.3272C4.96974 38.1713 4.99751 38.0566 4.99751 37.9832H5.12245ZM4.97559 39.6344L6.65481 44.0511H3.23069L4.97559 39.6344ZM15.4082 38.1758H14.6169H13.9367H13.7562H13.7146H12.6457L12.6596 38.3134H12.7429H12.8262C13.0668 38.3134 13.275 38.4006 13.4508 38.5749C13.6267 38.74 13.7146 38.9418 13.7146 39.1803V46.803C13.7146 47.0415 13.6267 47.2479 13.4508 47.4221C13.275 47.5873 13.0668 47.6698 12.8262 47.6698H12.7429H12.6596L12.6457 47.8074H13.7146H13.7562H14.492H14.6169H16.0329C16.7177 47.8074 17.3008 47.7019 17.782 47.4909C18.2725 47.2708 18.6427 46.9681 18.8926 46.5828C19.1425 46.1884 19.2674 45.7343 19.2674 45.2206C19.2674 44.762 19.1702 44.3492 18.9759 43.9823C18.7908 43.6062 18.5178 43.2943 18.1568 43.0467C17.8052 42.799 17.3841 42.6385 16.8936 42.5651C17.1527 42.4917 17.398 42.3679 17.6293 42.1936C17.8607 42.0101 18.0504 41.7762 18.1985 41.4919C18.3466 41.1983 18.4206 40.8589 18.4206 40.4737C18.4206 40.015 18.3049 39.616 18.0735 39.2766C17.8422 38.928 17.4998 38.6574 17.0463 38.4648C16.6021 38.2722 16.056 38.1758 15.4082 38.1758ZM14.6169 47.3121H15.9774C16.4586 47.3121 16.8658 47.2295 17.199 47.0644C17.5321 46.8901 17.7866 46.6379 17.9625 46.3076C18.1383 45.9774 18.2262 45.583 18.2262 45.1243C18.2262 44.6106 18.1244 44.1933 17.9208 43.8722C17.7265 43.5512 17.472 43.3081 17.1573 43.143C16.8427 42.9779 16.5002 42.8678 16.1301 42.8128C15.7691 42.7485 15.4221 42.7164 15.0889 42.7164V42.5926C15.3018 42.5926 15.5378 42.5697 15.7969 42.5238C16.056 42.4779 16.3059 42.3862 16.5465 42.2486C16.7871 42.111 16.9861 41.9092 17.1434 41.6432C17.3008 41.368 17.3794 41.0103 17.3794 40.57C17.3794 40.1572 17.3008 39.804 17.1434 39.5105C16.9954 39.217 16.7686 38.9968 16.4632 38.8501C16.1671 38.6941 15.7969 38.6161 15.3527 38.6161H14.6169V47.3121ZM27.6992 37.9832C28.6894 37.9832 29.5594 38.1942 30.309 38.6162C31.0586 39.0289 31.6417 39.6114 32.0581 40.3636C32.4839 41.1158 32.6967 41.9918 32.6967 42.9916C32.6967 43.9915 32.4839 44.8675 32.0581 45.6197C31.6417 46.3719 31.0586 46.9589 30.309 47.3809C29.5594 47.7937 28.6894 48.0001 27.6992 48.0001C26.7182 48.0001 25.8529 47.7937 25.1033 47.3809C24.3536 46.9589 23.766 46.3719 23.3403 45.6197C22.9238 44.8675 22.7156 43.9915 22.7156 42.9916C22.7156 41.9918 22.9238 41.1158 23.3403 40.3636C23.766 39.6114 24.3536 39.0289 25.1033 38.6162C25.8529 38.1942 26.7182 37.9832 27.6992 37.9832ZM27.6992 47.5873C28.4858 47.5873 29.1707 47.3946 29.7537 47.0094C30.346 46.6241 30.8041 46.0875 31.128 45.3995C31.4612 44.7116 31.6278 43.9089 31.6278 42.9916C31.6278 42.0744 31.4612 41.2717 31.128 40.5838C30.8041 39.8958 30.346 39.3592 29.7537 38.9739C29.1707 38.5886 28.4858 38.396 27.6992 38.396C26.9218 38.396 26.237 38.5886 25.6447 38.9739C25.0616 39.3592 24.6035 39.8958 24.2704 40.5838C23.9464 41.2717 23.7845 42.0744 23.7845 42.9916C23.7845 43.9089 23.9464 44.7116 24.2704 45.3995C24.6035 46.0875 25.0616 46.6241 25.6447 47.0094C26.237 47.3946 26.9218 47.5873 27.6992 47.5873ZM45.0211 46.2251V43.9548C45.0026 43.542 45.234 43.3356 45.7152 43.3356H45.9234V43.198H43.2026V43.3356H43.4247C43.8967 43.3356 44.1327 43.542 44.1327 43.9548L44.1188 46.3902C43.8597 46.6379 43.5635 46.8534 43.2303 47.0369C42.8972 47.2112 42.5409 47.3488 42.1614 47.4497C41.7912 47.5414 41.4025 47.5873 40.9953 47.5873C40.218 47.5781 39.5331 47.3855 38.9408 47.0094C38.3485 46.6241 37.8858 46.0875 37.5526 45.3995C37.2194 44.7116 37.0529 43.9089 37.0529 42.9916C37.0529 42.0744 37.2194 41.2717 37.5526 40.5838C37.8858 39.8958 38.3485 39.3592 38.9408 38.9739C39.5331 38.5886 40.218 38.396 40.9953 38.396C41.6062 38.396 42.1522 38.4923 42.6334 38.685C43.1147 38.8776 43.5126 39.1574 43.8273 39.5243C44.1512 39.882 44.3825 40.3269 44.5214 40.8589H44.6463L44.3687 38.9189C44.1003 38.7446 43.7995 38.5886 43.4663 38.4511C43.1424 38.3043 42.7769 38.1896 42.3697 38.1071C41.9625 38.0245 41.5043 37.9832 40.9953 37.9832C40.0144 37.9832 39.149 38.1942 38.3994 38.6162C37.6498 39.0289 37.0621 39.6114 36.6364 40.3636C36.2199 41.1158 36.0117 41.9918 36.0117 42.9916C36.0117 43.9915 36.2199 44.8675 36.6364 45.6197C37.0621 46.3627 37.6498 46.9452 38.3994 47.3671C39.149 47.7799 40.0144 47.9909 40.9953 48.0001C41.6987 48.0001 42.3095 47.9129 42.8278 47.7386C43.3553 47.5552 43.7995 47.3259 44.1604 47.0507C44.5214 46.7755 44.8083 46.5003 45.0211 46.2251ZM53.0255 37.9832L56.7457 46.803H56.7458C56.8846 47.1149 57.0697 47.3396 57.3011 47.4772C57.5325 47.6056 57.7546 47.6698 57.9674 47.6698H58.023H58.0785V47.8074H54.9551V47.6698H55.08C55.2558 47.6698 55.4132 47.5965 55.552 47.4497C55.6776 47.3086 55.7047 47.1186 55.6332 46.8797L54.7148 44.4639H50.9706L50.0173 46.877C49.9746 47.0288 49.9732 47.16 50.0131 47.2708C50.0593 47.3992 50.1334 47.5001 50.2352 47.5735C50.3462 47.6377 50.4573 47.6698 50.5684 47.6698H50.6933V47.8074H47.903V47.6698H47.9724H48.028C48.2408 47.6698 48.4583 47.6056 48.6804 47.4772C48.888 47.3538 49.062 47.1602 49.2026 46.8965L52.3869 39.4005L52.4563 39.2353C52.5118 39.1161 52.572 38.9739 52.6368 38.8088C52.7108 38.6437 52.771 38.4832 52.8172 38.3272C52.8728 38.1713 52.9005 38.0566 52.9005 37.9832H53.0255ZM52.8786 39.6344L54.5578 44.0511H51.1337L52.8786 39.6344ZM67.8597 38.7813C67.1193 38.3776 66.254 38.1758 65.2637 38.1758H62.529H62.1403H61.6683H61.6267H60.5577L60.5716 38.3134H60.6549H60.7382C60.9788 38.3134 61.1871 38.4006 61.3629 38.5749C61.5387 38.74 61.6267 38.9418 61.6267 39.1803V46.803C61.6174 47.0415 61.5248 47.2479 61.349 47.4221C61.1824 47.5873 60.9788 47.6698 60.7382 47.6698H60.641H60.5577V47.8074H61.6267H61.6683H62.293H62.529H65.2637C66.254 47.8074 67.1193 47.6056 67.8597 47.202C68.6093 46.7984 69.1923 46.2388 69.6088 45.5233C70.0345 44.7987 70.2474 43.9548 70.2474 42.9916C70.2474 42.0285 70.0345 41.1846 69.6088 40.4599C69.1923 39.7352 68.6093 39.1757 67.8597 38.7813ZM62.529 47.3946H62.5706H63.3203H64.2226H64.9583H65.2637C66.0596 47.3946 66.7491 47.2112 67.3321 46.8442C67.9244 46.4773 68.3825 45.9636 68.7065 45.3032C69.0396 44.6427 69.2062 43.8722 69.2062 42.9916C69.2062 42.111 69.0396 41.3405 68.7065 40.68C68.3825 40.0196 67.9244 39.5059 67.3321 39.139C66.7398 38.7721 66.0504 38.5886 65.2637 38.5886H64.9444H64.1671H63.237H62.529V47.3946ZM78.6773 37.9832C79.6675 37.9832 80.5375 38.1942 81.2871 38.6162C82.0367 39.0289 82.6198 39.6114 83.0362 40.3636C83.4619 41.1158 83.6748 41.9918 83.6748 42.9916C83.6748 43.9915 83.4619 44.8675 83.0362 45.6197C82.6198 46.3719 82.0367 46.9589 81.2871 47.3809C80.5375 47.7937 79.6675 48.0001 78.6773 48.0001C77.6963 48.0001 76.831 47.7937 76.0814 47.3809C75.3317 46.9589 74.7441 46.3719 74.3184 45.6197C73.9019 44.8675 73.6937 43.9915 73.6937 42.9916C73.6937 41.9918 73.9019 41.1158 74.3184 40.3636C74.7441 39.6114 75.3317 39.0289 76.0814 38.6162C76.831 38.1942 77.6963 37.9832 78.6773 37.9832ZM78.6773 47.5873C79.4639 47.5873 80.1488 47.3946 80.7318 47.0094C81.3241 46.6241 81.7822 46.0875 82.1061 45.3995C82.4393 44.7116 82.6059 43.9089 82.6059 42.9916C82.6059 42.0744 82.4393 41.2717 82.1061 40.5838C81.7822 39.8958 81.3241 39.3592 80.7318 38.9739C80.1488 38.5886 79.4639 38.396 78.6773 38.396C77.8999 38.396 77.2151 38.5886 76.6228 38.9739C76.0397 39.3592 75.5816 39.8958 75.2484 40.5838C74.9245 41.2717 74.7626 42.0744 74.7626 42.9916C74.7626 43.9089 74.9245 44.7116 75.2484 45.3995C75.5816 46.0875 76.0397 46.6241 76.6228 47.0094C77.2151 47.3946 77.8999 47.5873 78.6773 47.5873ZM95.3783 38.0108C95.2117 37.9924 95.0543 37.9832 94.9063 37.9832C94.3788 37.9832 93.9299 38.0979 93.5597 38.3272C93.1988 38.5474 92.9258 38.8363 92.7407 39.1941C92.5556 39.5518 92.463 39.9233 92.463 40.3086C92.463 40.5746 92.5186 40.8635 92.6296 41.1754C92.7407 41.4781 92.935 41.7579 93.2127 42.0147L95.878 44.4639C96.0538 44.6198 96.188 44.8079 96.2806 45.028C96.3731 45.239 96.4194 45.4775 96.4194 45.7435C96.4194 46.2939 96.2343 46.7342 95.8641 47.0644C95.5032 47.3855 95.0682 47.5598 94.5592 47.5873C94.152 47.6056 93.7865 47.5277 93.4625 47.3534C93.1479 47.1699 92.9073 46.9039 92.7407 46.5553C92.5741 46.2068 92.5139 45.7986 92.5602 45.3307H92.4353C92.3705 45.5326 92.3196 45.7573 92.2826 46.005C92.2456 46.2435 92.2271 46.4728 92.2271 46.6929C92.2271 46.9131 92.2409 47.0965 92.2687 47.2433C92.4538 47.4268 92.6852 47.5781 92.9628 47.6974C93.2497 47.8074 93.5412 47.8854 93.8374 47.9313C94.1428 47.9771 94.4065 48.0001 94.6286 48.0001C95.4245 48.0001 96.0538 47.7616 96.5166 47.2846C96.9886 46.8076 97.2246 46.1884 97.2246 45.4271C97.2246 45.1519 97.1783 44.8675 97.0857 44.574C96.9932 44.2804 96.8081 44.0053 96.5305 43.7484L93.7957 41.2442C93.5829 41.0424 93.4348 40.8268 93.3515 40.5975C93.2775 40.359 93.2404 40.1526 93.2404 39.9783C93.2404 39.5564 93.3978 39.1895 93.7124 38.8776C94.0271 38.5565 94.4389 38.396 94.9479 38.396C95.3829 38.396 95.7531 38.5244 96.0585 38.7813C96.3639 39.0289 96.5166 39.3729 96.5166 39.8132H96.6415V38.4098V38.2859V38.1208H96.0307C95.9816 38.1112 95.9307 38.102 95.878 38.0933C95.7207 38.0566 95.5541 38.0291 95.3783 38.0108ZM104.799 37.9832L108.519 46.803H108.519C108.658 47.1149 108.843 47.3396 109.075 47.4772C109.306 47.6056 109.528 47.6698 109.741 47.6698H109.797H109.852V47.8074H106.729V47.6698H106.854C107.029 47.6698 107.187 47.5965 107.326 47.4497C107.451 47.3085 107.478 47.1185 107.407 46.8797L106.488 44.4639H102.744L101.791 46.877C101.748 47.0287 101.747 47.16 101.787 47.2708C101.833 47.3992 101.907 47.5001 102.009 47.5735C102.12 47.6377 102.231 47.6698 102.342 47.6698H102.467V47.8074H99.6766V47.6698H99.746H99.8015C100.014 47.6698 100.232 47.6056 100.454 47.4772C100.662 47.3538 100.836 47.1602 100.976 46.8965L104.16 39.4005L104.23 39.2353C104.285 39.1161 104.346 38.9739 104.41 38.8088C104.484 38.6437 104.545 38.4832 104.591 38.3272C104.646 38.1713 104.674 38.0566 104.674 37.9832H104.799ZM104.652 39.6344L106.331 44.0511H102.907L104.652 39.6344ZM120.804 45.9716L113.239 37.9694H113.1L113.155 38.4785C113.202 38.8179 113.225 39.2215 113.225 39.6893V46.8304C113.225 47.0597 113.141 47.257 112.975 47.4221C112.808 47.5872 112.609 47.6697 112.378 47.6697H112.239H112.114V47.8073H113.225H113.266H113.822H113.863H114.974V47.6697H114.849H114.71C114.479 47.6697 114.28 47.5872 114.113 47.4221C113.947 47.257 113.863 47.0597 113.863 46.8304H113.862L113.851 39.998L121.429 48H121.554L121.512 47.7523C121.494 47.578 121.475 47.3579 121.457 47.0919C121.438 46.8167 121.429 46.5323 121.429 46.2388V39.1527C121.438 38.9142 121.526 38.717 121.693 38.561C121.859 38.3959 122.058 38.3134 122.29 38.3134H122.415H122.54V38.1758H121.429H121.387H120.832H120.804H119.68V38.3134H119.819H119.944C120.184 38.3134 120.383 38.3959 120.541 38.561C120.707 38.717 120.795 38.9142 120.804 39.1527V45.9716ZM127.764 39.1803V46.803C127.774 47.0415 127.862 47.2479 128.028 47.4221C128.204 47.5873 128.412 47.6698 128.653 47.6698H128.736H128.833V47.8074H127.764H127.723H126.904H126.862H125.793V47.6698H125.877H125.974C126.214 47.6698 126.418 47.5873 126.584 47.4221C126.76 47.2479 126.853 47.0415 126.862 46.803V39.1803C126.853 38.9418 126.76 38.74 126.584 38.5749C126.418 38.4006 126.214 38.3134 125.974 38.3134H125.877H125.793V38.1758H126.862H126.904H127.723H127.764H128.833V38.3134H128.736H128.653C128.412 38.3134 128.204 38.4006 128.028 38.5749C127.862 38.74 127.774 38.9418 127.764 39.1803ZM135.295 38.5749H132.685C132.454 38.5841 132.26 38.6666 132.102 38.8226C131.945 38.9785 131.866 39.1712 131.866 39.4005V39.6344L131.727 39.6482V38.5749V38.5336V38.3135V38.1621V37.9145C131.82 37.9512 131.959 37.9879 132.144 38.0245C132.338 38.0612 132.551 38.0933 132.782 38.1209C133.014 38.1484 133.227 38.1621 133.421 38.1621H138.071C138.275 38.1621 138.488 38.1484 138.71 38.1209C138.941 38.0933 139.154 38.0612 139.349 38.0245C139.543 37.9879 139.682 37.9512 139.765 37.9145V38.1621V38.3135V38.5336V38.5749V39.6482L139.626 39.6344V39.4005C139.626 39.1712 139.543 38.9785 139.376 38.8226C139.219 38.6666 139.029 38.5841 138.807 38.5749H136.197V46.803C136.207 47.0415 136.295 47.2479 136.461 47.4222C136.637 47.5873 136.845 47.6699 137.086 47.6699H137.169H137.266V47.8075H136.197H136.156H135.337H135.295H134.226V47.6699H134.309H134.407C134.647 47.6699 134.851 47.5873 135.017 47.4222C135.193 47.2479 135.286 47.0415 135.295 46.803V38.5749ZM146.811 37.9832L150.532 46.803C150.671 47.1149 150.856 47.3396 151.087 47.4772C151.318 47.6056 151.541 47.6698 151.753 47.6698H151.809H151.865V47.8074H148.741V47.6698H148.866C149.042 47.6698 149.199 47.5965 149.338 47.4497C149.464 47.3086 149.491 47.1186 149.419 46.8798L148.501 44.4639H144.757L143.803 46.8771C143.761 47.0288 143.759 47.16 143.799 47.2708C143.845 47.3992 143.919 47.5001 144.021 47.5735C144.132 47.6377 144.243 47.6698 144.354 47.6698H144.479V47.8074H141.689V47.6698H141.758H141.814C142.027 47.6698 142.244 47.6056 142.466 47.4772C142.674 47.3538 142.848 47.1602 142.989 46.8966L146.173 39.4005L146.242 39.2353C146.298 39.1161 146.358 38.9739 146.423 38.8088C146.497 38.6437 146.557 38.4832 146.603 38.3272C146.659 38.1713 146.687 38.0566 146.687 37.9832H146.811ZM146.665 39.6344L148.344 44.0511H144.92L146.665 39.6344ZM158.083 38.1758H156.306H156.126H155.445H155.404H154.335V38.3134H154.418H154.515C154.756 38.3134 154.959 38.4006 155.126 38.5749C155.302 38.74 155.394 38.9418 155.404 39.1803V46.803C155.394 47.0415 155.302 47.2479 155.126 47.4221C154.959 47.5873 154.756 47.6698 154.515 47.6698H154.418H154.335V47.8074H155.404H155.445H156.264H156.306H157.361V47.6698H157.278H157.194C156.954 47.6698 156.746 47.5873 156.57 47.4221C156.394 47.2479 156.306 47.0415 156.306 46.803V38.6024H156.542H157.222C157.5 38.5932 157.768 38.5978 158.027 38.6161C158.546 38.6437 158.957 38.8455 159.263 39.2216C159.578 39.5885 159.739 40.0838 159.749 40.7076C159.758 40.8543 159.753 41.0057 159.735 41.1616C159.716 41.3084 159.693 41.4322 159.665 41.5331C159.536 41.9459 159.346 42.2532 159.096 42.455C158.846 42.6568 158.578 42.7898 158.291 42.854C158.004 42.9182 157.74 42.9549 157.5 42.9641C157.296 42.9733 157.12 42.9779 156.972 42.9779L156.764 42.9641V43.1017C157.014 43.1017 157.245 43.198 157.458 43.3906C157.671 43.5833 157.865 43.7943 158.041 44.0236C158.06 44.0511 158.129 44.152 158.249 44.3263C158.37 44.4914 158.513 44.6932 158.68 44.9317C158.846 45.1702 159.013 45.4133 159.18 45.6609C159.355 45.8994 159.503 46.1058 159.624 46.2801C159.753 46.4544 159.832 46.5599 159.86 46.5966C160.008 46.7709 160.188 46.9543 160.401 47.147C160.614 47.3304 160.873 47.4864 161.179 47.6148C161.493 47.7432 161.863 47.8074 162.289 47.8074H163.053V47.6698C162.784 47.6698 162.539 47.6239 162.317 47.5322C162.104 47.4405 161.905 47.3167 161.72 47.1607C161.535 47.0048 161.35 46.8259 161.165 46.6241C161.026 46.4773 160.859 46.2801 160.665 46.0324C160.471 45.7848 160.276 45.5325 160.082 45.2757C159.897 45.0188 159.739 44.8033 159.61 44.629L159.429 44.3538C159.291 44.1703 159.129 43.9823 158.944 43.7897C158.758 43.5879 158.587 43.4549 158.43 43.3906C158.874 43.3906 159.272 43.2668 159.624 43.0191C159.985 42.7623 160.267 42.4321 160.471 42.0285C160.683 41.6249 160.79 41.2029 160.79 40.7626C160.79 40.359 160.725 40.0013 160.596 39.6894C160.475 39.3683 160.299 39.0977 160.068 38.8776C159.837 38.6482 159.55 38.474 159.207 38.3547C158.874 38.2355 158.499 38.1758 158.083 38.1758ZM167.506 39.1803V46.803C167.516 47.0415 167.604 47.2479 167.77 47.4221C167.946 47.5873 168.154 47.6698 168.395 47.6698H168.478H168.575V47.8074H167.506H167.465H166.646H166.604H165.535V47.6698H165.618H165.716C165.956 47.6698 166.16 47.5873 166.326 47.4221C166.502 47.2479 166.595 47.0415 166.604 46.803V39.1803C166.595 38.9418 166.502 38.74 166.326 38.5749C166.16 38.4006 165.956 38.3134 165.716 38.3134H165.618H165.535V38.1758H166.604H166.646H167.465H167.506H168.575V38.3134H168.478H168.395C168.154 38.3134 167.946 38.4006 167.77 38.5749C167.604 38.74 167.516 38.9418 167.506 39.1803ZM175.148 38.0108C174.982 37.9924 174.824 37.9832 174.676 37.9832C174.149 37.9832 173.7 38.0979 173.33 38.3272C172.969 38.5474 172.696 38.8363 172.511 39.1941C172.325 39.5518 172.233 39.9233 172.233 40.3086C172.233 40.5746 172.288 40.8635 172.4 41.1754C172.511 41.4781 172.705 41.7579 172.983 42.0147L175.648 44.4639C175.824 44.6198 175.958 44.8079 176.05 45.028C176.143 45.239 176.189 45.4775 176.189 45.7435C176.189 46.2939 176.004 46.7342 175.634 47.0644C175.273 47.3855 174.838 47.5598 174.329 47.5873C173.922 47.6056 173.556 47.5277 173.232 47.3534C172.918 47.1699 172.677 46.9039 172.511 46.5553C172.344 46.2068 172.284 45.7986 172.33 45.3307H172.205C172.14 45.5326 172.089 45.7573 172.052 46.005C172.015 46.2435 171.997 46.4728 171.997 46.6929C171.997 46.9131 172.011 47.0965 172.039 47.2433C172.224 47.4268 172.455 47.5781 172.733 47.6974C173.02 47.8074 173.311 47.8854 173.607 47.9313C173.913 47.9771 174.176 48.0001 174.399 48.0001C175.194 48.0001 175.824 47.7616 176.286 47.2846C176.758 46.8076 176.994 46.1884 176.994 45.4271C176.994 45.1519 176.948 44.8675 176.856 44.574C176.763 44.2804 176.578 44.0053 176.3 43.7484L173.566 41.2442C173.353 41.0424 173.205 40.8268 173.121 40.5975C173.047 40.359 173.01 40.1526 173.01 39.9783C173.01 39.5564 173.168 39.1895 173.482 38.8776C173.797 38.5565 174.209 38.396 174.718 38.396C175.153 38.396 175.523 38.5244 175.828 38.7813C176.134 39.0289 176.286 39.3729 176.286 39.8132H176.411V38.4098V38.2859V38.1208H175.801C175.777 38.1163 175.754 38.1118 175.73 38.1075C175.703 38.1026 175.676 38.0979 175.648 38.0933C175.491 38.0566 175.324 38.0291 175.148 38.0108ZM180.821 38.5749H183.431V46.803C183.421 47.0415 183.329 47.2479 183.153 47.4222C182.986 47.5873 182.783 47.6699 182.542 47.6699H182.445H182.362V47.8075H183.431H183.472H184.291H184.333H185.402V47.6699H185.305H185.221C184.981 47.6699 184.773 47.5873 184.597 47.4222C184.43 47.2479 184.342 47.0415 184.333 46.803V38.5749H186.943C187.165 38.5841 187.355 38.6666 187.512 38.8226C187.678 38.9785 187.762 39.1712 187.762 39.4005V39.6344L187.901 39.6482V38.5749V38.5336V38.3135V38.1621V37.9145C187.817 37.9512 187.678 37.9879 187.484 38.0245C187.29 38.0612 187.077 38.0933 186.846 38.1209C186.623 38.1484 186.411 38.1621 186.207 38.1621H181.557C181.362 38.1621 181.149 38.1484 180.918 38.1209C180.687 38.0933 180.474 38.0612 180.279 38.0245C180.094 37.9879 179.955 37.9512 179.863 37.9145V38.1621V38.3135V38.5336V38.5749V39.6482L180.002 39.6344V39.4005C180.002 39.1712 180.08 38.9785 180.238 38.8226C180.395 38.6666 180.589 38.5841 180.821 38.5749ZM198.667 46.803L194.947 37.9832H194.822C194.822 38.0566 194.794 38.1713 194.739 38.3272C194.692 38.4832 194.632 38.6437 194.558 38.8088C194.493 38.9739 194.433 39.1161 194.378 39.2353L194.308 39.4005L191.124 46.8966C190.983 47.1602 190.809 47.3538 190.602 47.4772C190.38 47.6056 190.162 47.6698 189.949 47.6698H189.894H189.824V47.8074H192.615V47.6698H192.49C192.379 47.6698 192.268 47.6377 192.157 47.5735C192.055 47.5001 191.981 47.3992 191.935 47.2708C191.895 47.16 191.896 47.0288 191.939 46.8771L192.892 44.4639H196.636L197.555 46.8798C197.626 47.1186 197.599 47.3086 197.473 47.4497C197.335 47.5965 197.177 47.6698 197.001 47.6698H196.876V47.8074H200V47.6698H199.944H199.889C199.676 47.6698 199.454 47.6056 199.223 47.4772C198.991 47.3396 198.806 47.1149 198.667 46.803ZM196.479 44.0511L194.8 39.6344L193.055 44.0511H196.479Z" fill="#171719"/>
</svg>
