<svg width="49" height="60" viewBox="0 0 49 60" fill="none" xmlns="http://www.w3.org/2000/svg">
<path d="M37.9829 9.41261H0V0H37.9829V9.41261Z" fill="#004AAD"/>
<path d="M39.0842 10.7612V0H49V46.9395H9.22505V60H0V10.7612H39.0842Z" fill="#004AAD"/>
<path d="M49 48.2652V60H10.3264V48.2652H49Z" fill="#004AAD"/>
<path d="M35.4061 15.3843C34.7134 15.337 34.1282 15.3134 33.6504 15.3134C32.1455 15.3134 30.8437 15.5733 29.7449 16.093C28.67 16.6128 27.822 17.3451 27.2009 18.2901C26.5798 19.2115 26.2215 20.2864 26.126 21.5149C25.9827 22.8142 26.1976 24.0191 26.7709 25.1294C27.3442 26.2398 28.2639 27.1494 29.5299 27.8581L35.8003 31.9688C36.8035 32.5121 37.5201 33.0791 37.9501 33.6697C38.404 34.2604 38.6309 34.9219 38.6309 35.6542C38.6309 36.7409 38.2009 37.6741 37.341 38.4537C36.481 39.2097 35.2628 39.5995 33.6862 39.6231C32.253 39.6468 31.0109 39.3633 29.9599 38.7727C28.9327 38.1584 28.1444 37.3434 27.595 36.3275C27.0695 35.288 26.8545 34.1659 26.9501 32.961H26.6276C26.3171 33.4571 26.0543 34.0832 25.8393 34.8392C25.8181 34.923 25.798 35.0067 25.7788 35.0903C25.5315 35.5702 25.2544 36.0181 24.9477 36.4338C24.3027 37.2843 23.5264 37.9458 22.6187 38.4183C21.711 38.8672 20.6599 39.0916 19.4656 39.0916H14.7718V18.3964C14.7957 17.7822 15.0226 17.2625 15.4526 16.8372C15.9064 16.3884 16.4439 16.1639 17.0649 16.1639H17.5307V15.8096H6.63821V16.1639H7.10401C7.72507 16.1639 8.25059 16.3884 8.68056 16.8372C9.13441 17.2625 9.37328 17.7822 9.39717 18.3964V38.0285C9.37328 38.6427 9.13441 39.1743 8.68056 39.6232C8.25059 40.0484 7.72507 40.261 7.10401 40.261H6.63821V40.6154H25.1985L25.6586 38.5972C25.6899 38.7197 25.7263 38.8373 25.7677 38.9499C26.2215 39.3987 26.8306 39.7885 27.595 40.1193C28.3594 40.4264 29.2313 40.6626 30.2107 40.828C31.2139 41.017 32.2411 41.1115 33.2921 41.1115C36.1586 41.1115 38.4278 40.4736 40.0999 39.1979C41.772 37.8986 42.6678 36.0913 42.7872 33.7761C42.8589 32.4531 42.6081 31.2955 42.0348 30.3032C41.4854 29.311 40.6613 28.5078 39.5625 27.8935L32.7188 23.4994C31.9783 23.0505 31.3692 22.5662 30.8915 22.0464C30.4137 21.5267 30.1868 20.9125 30.2107 20.2037C30.2584 19.2587 30.7004 18.4555 31.5364 17.794C32.3963 17.1325 33.519 16.8018 34.9045 16.8018C36.4333 16.8018 37.6515 17.1798 38.5592 17.9358C39.4908 18.6681 39.9566 19.6485 39.9566 20.877H40.3149L40.7449 16.093C40.7433 16.0923 40.7416 16.0916 40.74 16.0909L40.7807 15.6678H38.2855C38.0651 15.643 37.8338 15.6194 37.5918 15.5969C36.8513 15.5024 36.1227 15.4315 35.4061 15.3843Z" fill="#FEFEFD"/>
</svg>
