<svg width="24" height="24" viewBox="0 0 24 24" fill="none" xmlns="http://www.w3.org/2000/svg">
<path d="M12 24C18.6274 24 24 18.6274 24 12C24 5.37258 18.6274 0 12 0C5.37258 0 0 5.37258 0 12C0 18.6274 5.37258 24 12 24Z" fill="#25D366"/>
<path fill-rule="evenodd" clip-rule="evenodd" d="M12.3955 18.6763H12.3925C11.1983 18.6758 10.0249 18.3762 8.98263 17.8077L5.19995 18.8L6.21226 15.1024C5.58782 14.0203 5.25924 12.7927 5.25978 11.5351C5.26134 7.60084 8.46236 4.39999 12.3954 4.39999C14.3043 4.40082 16.0959 5.14393 17.4431 6.4927C18.7902 7.8414 19.5318 9.63416 19.531 11.5407C19.5294 15.4741 16.3297 18.6746 12.3955 18.6763ZM9.15788 16.5159L9.37445 16.6445C10.285 17.1848 11.3288 17.4708 12.3931 17.4712H12.3955C15.6644 17.4712 18.3249 14.8106 18.3262 11.5403C18.3268 9.9556 17.7105 8.46554 16.5908 7.34449C15.471 6.22344 13.9819 5.60576 12.3978 5.60521C9.12641 5.60521 6.46584 8.26555 6.46454 11.5355C6.46408 12.6562 6.77764 13.7476 7.37132 14.6918L7.51234 14.9162L6.91319 17.1048L9.15788 16.5159ZM15.7462 13.077C15.8705 13.1371 15.9545 13.1777 15.9903 13.2376C16.0349 13.3119 16.0349 13.6689 15.8864 14.0854C15.7378 14.5019 15.0255 14.882 14.6829 14.9332C14.3757 14.9791 13.987 14.9982 13.5599 14.8625C13.301 14.7803 12.9689 14.6706 12.5435 14.4869C10.872 13.7652 9.74247 12.1452 9.52898 11.839C9.51402 11.8176 9.50356 11.8026 9.49773 11.7948L9.49629 11.7928C9.40193 11.667 8.76971 10.8234 8.76971 9.95038C8.76971 9.12911 9.17313 8.69865 9.35882 8.5005C9.37155 8.48693 9.38325 8.47444 9.39372 8.463C9.55715 8.2845 9.75032 8.23987 9.86917 8.23987C9.98802 8.23987 10.107 8.24097 10.2109 8.24619C10.2237 8.24683 10.237 8.24675 10.2508 8.24667C10.3547 8.24606 10.4843 8.2453 10.612 8.55225C10.6612 8.67037 10.7331 8.84549 10.809 9.03019C10.9624 9.4037 11.1319 9.81638 11.1618 9.8761C11.2063 9.96535 11.236 10.0694 11.1766 10.1885C11.1677 10.2063 11.1594 10.2232 11.1516 10.2393C11.1069 10.3304 11.0741 10.3974 10.9983 10.4859C10.9685 10.5207 10.9377 10.5582 10.907 10.5957C10.8456 10.6704 10.7843 10.745 10.7309 10.7983C10.6416 10.8872 10.5487 10.9836 10.6527 11.1621C10.7567 11.3406 11.1145 11.9245 11.6446 12.3972C12.2143 12.9054 12.7095 13.1202 12.9605 13.2291C13.0096 13.2504 13.0493 13.2676 13.0784 13.2822C13.2566 13.3715 13.3606 13.3565 13.4646 13.2376C13.5686 13.1186 13.9103 12.7169 14.0292 12.5385C14.148 12.36 14.2669 12.3897 14.4303 12.4492C14.5938 12.5088 15.4704 12.9401 15.6487 13.0293C15.6835 13.0467 15.716 13.0624 15.7462 13.077Z" fill="#FDFDFD"/>
</svg>
