<svg width="312" height="213" viewBox="0 0 312 213" fill="none" xmlns="http://www.w3.org/2000/svg">
<rect x="101.433" y="57.0701" width="101.3" height="101.103" rx="50.5515" fill="#F7F7F7" stroke="#0C4469" stroke-width="0.2"/>
<mask id="mask0_73_785" style="mask-type:luminance" maskUnits="userSpaceOnUse" x="101" y="56" width="103" height="103">
<path d="M101.255 56.9908H203.255V158.793H101.255V56.9908Z" fill="white"/>
</mask>
<g mask="url(#mask0_73_785)">
<path d="M152.276 57.0116C124.157 57.0116 101.276 79.8474 101.276 107.913C101.276 119.489 105.162 130.177 111.714 138.733C111.714 138.738 111.714 138.738 111.714 138.738C111.719 138.743 111.724 138.749 111.729 138.754L111.735 138.759C115.349 142.689 119.62 146.016 124.365 148.568L124.37 148.573C128.61 150.855 133.235 152.513 138.115 153.428C118.677 147.393 104.532 129.267 104.532 107.913C104.532 81.6408 125.948 60.2605 152.276 60.2605C178.604 60.2605 200.026 81.6408 200.026 107.913C200.026 129.844 185.104 148.36 164.87 153.886C164.865 153.886 164.86 153.886 164.849 153.886C159.849 155.768 154.474 156.88 148.87 157.077H148.865C148.261 157.098 147.646 157.109 147.032 157.109C142.474 157.109 138.058 156.511 133.849 155.383C139.568 157.602 145.787 158.819 152.276 158.819C180.401 158.819 203.282 135.983 203.282 107.913C203.282 79.8474 180.401 57.0116 152.276 57.0116Z" fill="#0C4469"/>
<path d="M152.276 58.6387C125.005 58.6387 102.906 80.6999 102.906 107.913C102.906 124.796 111.406 139.689 124.365 148.568H124.37C128.609 150.855 133.234 152.513 138.115 153.428C138.115 153.434 138.12 153.434 138.12 153.434C141.01 153.979 143.984 154.26 147.031 154.26C173.474 154.26 194.984 132.791 194.984 106.405C194.984 105.62 195.62 104.981 196.406 104.981C197.193 104.981 197.833 105.62 197.833 106.405C197.833 128.103 184.109 146.66 164.87 153.886C164.865 153.886 164.859 153.886 164.849 153.886C159.849 155.768 154.474 156.88 148.87 157.077C149.995 157.155 151.13 157.197 152.276 157.197C179.547 157.197 201.651 135.131 201.651 107.913C201.651 80.6999 179.547 58.6387 152.276 58.6387ZM170.802 116.136H160.51V126.403C160.51 130.577 156.828 133.956 152.276 133.956C147.729 133.956 144.042 130.577 144.042 126.403V116.136H133.75C129.573 116.136 126.182 112.456 126.182 107.913C126.182 103.38 129.573 99.6943 133.75 99.6943H144.042V89.4226C144.042 85.2536 147.729 81.8695 152.276 81.8695C156.828 81.8695 160.51 85.2536 160.51 89.4226V99.6943H170.802C174.984 99.6943 178.37 103.38 178.37 107.913C178.37 112.456 174.984 116.136 170.802 116.136ZM195.344 93.9346C193.932 95.3485 191.641 95.3485 190.224 93.9346C188.807 92.5207 188.807 90.2335 190.224 88.8196C191.641 87.4109 193.932 87.4109 195.344 88.8196C196.76 90.2335 196.76 92.5207 195.344 93.9346Z" fill="#0C4469"/>
</g>
<path d="M71.6403 142.972L82.2028 138.606L85.4528 146.424L56.4111 158.401L52.4736 148.919C49.2132 141.033 50.4423 135.913 56.1611 133.553C59.5361 132.155 62.8225 132.727 66.0153 135.258L75.1611 121.597L78.8486 130.476L70.8278 140.997L71.6403 142.972ZM65.7444 145.384L65.1403 143.908C64.0205 141.179 62.2392 140.321 59.8069 141.33C57.8225 142.151 57.3798 143.898 58.4736 146.57L59.1194 148.129L65.7444 145.384Z" fill="#A68033"/>
<path d="M75.4635 95.1461L75.0885 113.756L43.6719 113.132L44.0469 94.5223L50.8594 94.6678L50.651 104.815L55.5885 104.898L55.776 95.4995L62.5885 95.6451L62.401 105.043L68.3385 105.147L68.5469 95.0005L75.4635 95.1461Z" fill="#A68033"/>
<path d="M66.0655 65.9057L71.9196 53.7003L87.1905 60.9986C86.7321 64.8556 85.5498 68.7699 83.6488 72.7466C81.5655 77.1027 78.6801 79.8629 75.003 81.0221C71.3259 82.1865 67.1384 81.6563 62.4405 79.4211C57.8728 77.2326 54.9405 74.2332 53.6488 70.4177C52.3623 66.5971 52.8415 62.3397 55.0863 57.6509C55.9509 55.8679 56.93 54.2617 58.0238 52.8477C59.1071 51.439 60.1957 50.2642 61.2738 49.3337L66.1071 54.6151C64.1228 56.1694 62.5446 58.1655 61.378 60.6035C60.3103 62.8387 60.2165 64.9128 61.0863 66.8206C61.9509 68.7335 63.7269 70.3398 66.4196 71.6237C69.0863 72.9025 71.3832 73.3184 73.2946 72.8713C75.2009 72.4295 76.6488 71.1663 77.6488 69.087C78.1853 67.9538 78.5863 66.8622 78.8363 65.8225L74.3988 63.7016L71.9821 68.7335L66.0655 65.9057Z" fill="#A68033"/>
<path d="M97.3517 12.5339L108.789 27.588C111.258 30.8629 112.253 34.1014 111.768 37.2983C111.279 40.49 109.284 43.4062 105.789 46.0521C102.373 48.6304 99.0861 49.7428 95.9351 49.379C92.7788 49.0203 89.9663 47.2061 87.4767 43.9312L75.9351 28.7316L82.7059 23.5958L93.8517 38.2756C95.1799 40.0378 96.4819 41.0722 97.7476 41.3737C99.0236 41.6648 100.31 41.3269 101.602 40.3548C102.972 39.3048 103.669 38.1508 103.685 36.9032C103.711 35.6452 103.034 34.1118 101.664 32.308L90.5601 17.6698L97.3517 12.5339Z" fill="#A68033"/>
<path d="M126.7 33.7442L120.138 3.07465L128.429 1.30725L133.554 25.2815L145.409 22.7655L146.846 29.4608L126.7 33.7442Z" fill="#A68033"/>
<path d="M175.245 33.4142L175.016 27.3427L165.058 25.1178L162.224 30.5032L153.12 28.4655L170.037 0L181.078 2.47436L184.287 35.4519L175.245 33.4142ZM174.808 20.1899L174.62 14.8669C174.589 13.6765 174.547 12.1431 174.495 10.2717C174.453 8.40553 174.438 7.07998 174.453 6.30025C174.188 6.96562 173.677 8.08324 172.933 9.64791C172.193 11.2022 170.646 14.2275 168.287 18.7136L174.808 20.1899Z" fill="#A68033"/>
<path d="M217.235 28.9357C215.652 27.7037 213.897 27.3866 211.985 27.9792C210.079 28.577 208.225 30.0117 206.423 32.2833C202.673 37.0241 202.6 40.8136 206.215 43.657C207.293 44.5148 208.47 45.1957 209.735 45.6948C211.012 46.1886 212.34 46.6356 213.715 47.0255L209.277 52.6604C206.485 51.9378 203.788 50.5499 201.194 48.5018C197.47 45.5752 195.459 42.2535 195.173 38.542C194.892 34.8305 196.366 30.9266 199.59 26.8356C201.6 24.2885 203.85 22.4275 206.34 21.2631C208.834 20.1039 211.402 19.714 214.027 20.0987C216.647 20.473 219.178 21.6218 221.61 23.5295C224.272 25.64 226.366 28.2339 227.881 31.3061L221.694 34.924C221.121 33.7648 220.496 32.6784 219.819 31.6803C219.137 30.6875 218.272 29.7674 217.235 28.9357Z" fill="#A68033"/>
<path d="M215.254 63.2831L242.109 47.0231L246.525 54.3006L219.671 70.5606L215.254 63.2831Z" fill="#A68033"/>
<path d="M245.554 107.654C240.33 108.454 236.153 107.784 233.034 105.637C229.919 103.485 227.987 99.9449 227.242 95.0118C226.492 90.1566 227.284 86.2268 229.617 83.2222C231.945 80.2124 235.726 78.3047 240.95 77.5041C246.112 76.7192 250.263 77.395 253.388 79.5418C256.508 81.6991 258.45 85.2443 259.2 90.167C259.961 95.0845 259.185 99.03 256.867 101.998C254.56 104.961 250.789 106.848 245.554 107.654ZM242.263 86.3203C236.263 87.2456 233.586 89.7927 234.242 93.9513C234.56 96.067 235.523 97.5329 237.138 98.3386C238.758 99.1392 241.117 99.3055 244.2 98.8377C247.31 98.3646 249.518 97.4913 250.825 96.2177C252.143 94.939 252.643 93.2756 252.325 91.2275C251.669 87.0273 248.315 85.3898 242.263 86.3203ZM259.825 84.8024L260.45 84.6985C263.112 86.5127 264.83 87.6615 265.596 88.1501C266.372 88.6335 267.054 89.0338 267.638 89.3561L269.034 98.4218L268.596 98.4842C267.513 97.4861 266.112 96.1034 264.409 94.3464C262.711 92.5842 261.466 91.2378 260.679 90.3126L259.825 84.8024Z" fill="#A68033"/>
<path d="M218.61 147.158L222.464 136.762L247.193 133.705L247.277 133.518C243.912 132.562 241.375 131.761 239.672 131.127L226.381 126.22L228.985 119.192L258.443 130.087L254.61 140.463L230.152 143.603L230.11 143.707C233.146 144.606 235.573 145.391 237.381 146.056L250.693 150.984L248.068 158.054L218.61 147.158Z" fill="#A68033"/>
<path d="M59.7949 199.538C59.7949 201.482 59.3001 203.208 58.3158 204.715C57.3262 206.228 55.8939 207.408 54.0241 208.25C52.1595 209.077 49.9772 209.498 47.4824 209.498C45.3835 209.498 43.623 209.347 42.2116 209.061C40.7949 208.759 39.321 208.245 37.7949 207.522V199.974C39.4043 200.806 41.0866 201.461 42.8366 201.929C44.5814 202.386 46.1908 202.615 47.6491 202.615C48.9095 202.615 49.8366 202.402 50.4199 201.971C50.998 201.529 51.2949 200.962 51.2949 200.266C51.2949 199.839 51.1751 199.465 50.9408 199.143C50.7012 198.826 50.321 198.498 49.7949 198.165C49.2793 197.838 47.8887 197.162 45.6283 196.149C43.5866 195.223 42.0501 194.319 41.0241 193.445C39.9928 192.577 39.2272 191.574 38.7324 190.451C38.2428 189.318 38.0033 187.977 38.0033 186.438C38.0033 183.558 39.0501 181.313 41.1491 179.701C43.2585 178.085 46.1543 177.269 49.8366 177.269C53.0814 177.269 56.4043 178.022 59.7949 179.514L57.1908 186.043C54.2585 184.718 51.722 184.047 49.5866 184.047C48.4876 184.047 47.6803 184.245 47.1699 184.629C46.6699 185.004 46.4199 185.477 46.4199 186.043C46.4199 186.667 46.7376 187.223 47.3783 187.707C48.0137 188.195 49.7428 189.084 52.5658 190.368C55.2689 191.574 57.1543 192.879 58.2116 194.277C59.2637 195.665 59.7949 197.422 59.7949 199.538Z" fill="#0C4469"/>
<path d="M83.9186 209.061L82.377 203.177H72.1686L70.5853 209.061H61.252L71.502 177.581H82.8145L93.1895 209.061H83.9186ZM80.6061 196.232L79.252 191.096C78.9447 189.947 78.5592 188.466 78.1061 186.646C77.6582 184.832 77.3613 183.538 77.2103 182.758C77.0853 183.48 76.8249 184.681 76.4395 186.355C76.0645 188.034 75.2207 191.33 73.9186 196.232H80.6061Z" fill="#0C4469"/>
<path d="M126.491 209.061H115.366L103.908 186.979H103.699C103.975 190.446 104.116 193.097 104.116 194.922V209.061H96.5951V177.705H107.678L119.116 199.496H119.241C119.033 196.341 118.928 193.799 118.928 191.886V177.705H126.491V209.061Z" fill="#0C4469"/>
<path d="M133.29 209.061V177.705H141.811V209.061H133.29Z" fill="#0C4469"/>
<path d="M162.463 209.061H153.984V184.629H146.317V177.705H170.109V184.629H162.463V209.061Z" fill="#0C4469"/>
<path d="M193.876 209.061L192.334 203.177H182.126L180.542 209.061H171.209L181.459 177.581H192.771L203.146 209.061H193.876ZM190.563 196.232L189.209 191.096C188.902 189.947 188.516 188.466 188.063 186.646C187.615 184.832 187.318 183.538 187.167 182.758C187.042 183.48 186.782 184.681 186.396 186.355C186.021 188.034 185.178 191.33 183.876 196.232H190.563Z" fill="#0C4469"/>
<path d="M215.031 197.646V209.061H206.552V177.705H216.844C225.38 177.705 229.656 180.798 229.656 186.979C229.656 190.612 227.875 193.419 224.323 195.4L233.469 209.061H223.844L217.177 197.646H215.031ZM215.031 191.283H216.635C219.589 191.283 221.073 189.973 221.073 187.353C221.073 185.206 219.62 184.13 216.719 184.13H215.031V191.283Z" fill="#0C4469"/>
<path d="M236.329 209.061V177.705H244.85V209.061H236.329Z" fill="#0C4469"/>
<path d="M270.919 209.061L269.377 203.177H259.169L257.585 209.061H248.252L258.502 177.581H269.814L280.189 209.061H270.919ZM267.606 196.232L266.252 191.096C265.945 189.947 265.559 188.466 265.106 186.646C264.658 184.832 264.361 183.538 264.21 182.758C264.085 183.48 263.825 184.681 263.439 186.355C263.064 188.034 262.221 191.33 260.919 196.232H267.606Z" fill="#0C4469"/>
<mask id="mask1_73_785" style="mask-type:luminance" maskUnits="userSpaceOnUse" x="280" y="176" width="32" height="26">
<path d="M280.203 176.363H312V201.314H280.203V176.363Z" fill="white"/>
</mask>
<g mask="url(#mask1_73_785)">
<path d="M281.083 194.453C282.823 194.453 284.568 194.453 286.307 194.453C286.604 194.453 286.849 194.255 286.932 193.98C288.021 190.523 289.109 187.071 290.198 183.614C289.776 183.614 289.359 183.614 288.938 183.614C290.245 187.212 291.552 190.809 292.854 194.411C293.063 194.983 293.943 195.071 294.115 194.411C295.563 188.724 297.016 183.037 298.464 177.356C298.047 177.356 297.625 177.356 297.203 177.356C298.583 185.127 299.958 192.898 301.339 200.67C301.432 201.21 302.292 201.314 302.531 200.826C303.578 198.674 304.625 196.527 305.672 194.38C305.932 193.845 304.865 194.453 305.568 194.453C306.255 194.453 306.943 194.453 307.63 194.453C308.859 194.453 310.089 194.453 311.323 194.453C312.161 194.453 312.161 193.158 311.323 193.158C309.292 193.158 307.26 193.158 305.229 193.158C305.016 193.158 304.766 193.278 304.667 193.481C303.578 195.711 302.49 197.941 301.406 200.171C301.802 200.223 302.198 200.275 302.599 200.327C301.219 192.555 299.844 184.779 298.464 177.007C298.349 176.363 297.354 176.415 297.203 177.007C295.755 182.694 294.307 188.381 292.854 194.063C293.276 194.063 293.693 194.063 294.115 194.063C292.807 190.466 291.505 186.869 290.198 183.271C289.979 182.674 289.141 182.632 288.938 183.271C287.854 186.723 286.766 190.18 285.677 193.631C285.885 193.475 286.094 193.314 286.307 193.158C284.568 193.158 282.823 193.158 281.083 193.158C280.245 193.158 280.245 194.453 281.083 194.453Z" fill="#D45555"/>
</g>
<mask id="mask2_73_785" style="mask-type:luminance" maskUnits="userSpaceOnUse" x="0" y="183" width="36" height="30">
<path d="M0 183.724H36V213H0V183.724Z" fill="white"/>
</mask>
<g mask="url(#mask2_73_785)">
<mask id="mask3_73_785" style="mask-type:luminance" maskUnits="userSpaceOnUse" x="-1" y="183" width="38" height="30">
<path d="M35.6302 212.34L-0.359375 211.575L0.234375 183.635L36.2292 184.399L35.6302 212.34Z" fill="white"/>
</mask>
<g mask="url(#mask3_73_785)">
<mask id="mask4_73_785" style="mask-type:luminance" maskUnits="userSpaceOnUse" x="-1" y="183" width="38" height="30">
<path d="M35.6302 212.34L-0.359375 211.575L0.234375 183.635L36.2292 184.399L35.6302 212.34Z" fill="white"/>
</mask>
<g mask="url(#mask4_73_785)">
<path d="M35.0625 192.067C33.1094 192.025 31.151 191.984 29.1927 191.942C28.8594 191.932 28.5781 192.15 28.4739 192.457C27.1719 196.298 25.8646 200.14 24.5573 203.981C25.0312 203.991 25.5 204.002 25.9739 204.012C24.5937 199.952 23.2083 195.893 21.8281 191.833C21.6094 191.183 20.6198 191.063 20.4114 191.802C18.6458 198.133 16.8802 204.465 15.1146 210.796C15.5833 210.806 16.0573 210.817 16.526 210.827C15.1667 202.089 13.8021 193.356 12.4375 184.618C12.3437 184.01 11.3802 183.874 11.1042 184.415C9.87499 186.796 8.64062 189.177 7.41145 191.557C7.10936 192.15 8.32812 191.495 7.53645 191.479C6.76041 191.464 5.98957 191.443 5.21874 191.427C3.83332 191.401 2.44791 191.37 1.0677 191.339C0.119782 191.318 0.0885307 192.769 1.03645 192.789C3.3177 192.841 5.59895 192.888 7.88541 192.935C8.12499 192.94 8.41145 192.815 8.52603 192.592C9.80207 190.117 11.0781 187.648 12.3542 185.174C11.9062 185.106 11.4635 185.039 11.0156 184.971C12.3802 193.709 13.7396 202.442 15.1042 211.181C15.2187 211.908 16.3333 211.872 16.5208 211.212C18.2864 204.88 20.0521 198.549 21.8229 192.218C21.3489 192.207 20.875 192.197 20.4062 192.186C21.7864 196.246 23.1667 200.306 24.5521 204.366C24.776 205.042 25.7239 205.104 25.9635 204.397C27.2708 200.555 28.5781 196.714 29.8802 192.872C29.6406 193.044 29.401 193.216 29.1614 193.392C31.1198 193.434 33.0781 193.475 35.0312 193.517C35.9792 193.538 36.0104 192.088 35.0625 192.067Z" fill="#D45555"/>
</g>
</g>
</g>
</svg>
